%TF.GenerationSoftware,KiCad,Pcbnew,10.0.1*%
%TF.CreationDate,2026-05-18T21:21:10+10:00*%
%TF.ProjectId,ppc-isa-expansion,7070632d-6973-4612-9d65-7870616e7369,0.1*%
%TF.SameCoordinates,Original*%
%TF.FileFunction,Soldermask,Bot*%
%TF.FilePolarity,Negative*%
%FSLAX46Y46*%
G04 Gerber Fmt 4.6, Leading zero omitted, Abs format (unit mm)*
G04 Created by KiCad (PCBNEW 10.0.1) date 2026-05-18 21:21:10*
%MOMM*%
%LPD*%
G01*
G04 APERTURE LIST*
G04 Aperture macros list*
%AMRoundRect*
0 Rectangle with rounded corners*
0 $1 Rounding radius*
0 $2 $3 $4 $5 $6 $7 $8 $9 X,Y pos of 4 corners*
0 Add a 4 corners polygon primitive as box body*
4,1,4,$2,$3,$4,$5,$6,$7,$8,$9,$2,$3,0*
0 Add four circle primitives for the rounded corners*
1,1,$1+$1,$2,$3*
1,1,$1+$1,$4,$5*
1,1,$1+$1,$6,$7*
1,1,$1+$1,$8,$9*
0 Add four rect primitives between the rounded corners*
20,1,$1+$1,$2,$3,$4,$5,0*
20,1,$1+$1,$4,$5,$6,$7,0*
20,1,$1+$1,$6,$7,$8,$9,0*
20,1,$1+$1,$8,$9,$2,$3,0*%
G04 Aperture macros list end*
%ADD10C,6.400000*%
%ADD11RoundRect,0.250000X0.673333X1.490000X-0.673333X1.490000X-0.673333X-1.490000X0.673333X-1.490000X0*%
%ADD12R,1.700000X1.700000*%
%ADD13O,1.700000X1.700000*%
%ADD14R,1.600000X1.600000*%
%ADD15C,1.600000*%
G04 APERTURE END LIST*
D10*
%TO.C,H1*%
X100950000Y-127390000D03*
%TD*%
D11*
%TO.C,J2*%
X205925000Y-61470000D03*
X203155000Y-61470000D03*
X200385000Y-61470000D03*
X197615000Y-61470000D03*
X194845000Y-61470000D03*
X192075000Y-61470000D03*
X189305000Y-61470000D03*
X186535000Y-61470000D03*
X183765000Y-61470000D03*
X180995000Y-61470000D03*
X178225000Y-61470000D03*
X175455000Y-61470000D03*
X172685000Y-61470000D03*
X169915000Y-61470000D03*
X167145000Y-61470000D03*
X164375000Y-61470000D03*
X161605000Y-61470000D03*
X158835000Y-61470000D03*
%TD*%
%TO.C,J1*%
X129505000Y-61470000D03*
X126735000Y-61470000D03*
X123965000Y-61470000D03*
X121195000Y-61470000D03*
X118425000Y-61470000D03*
X115655000Y-61470000D03*
X112885000Y-61470000D03*
X110115000Y-61470000D03*
X107345000Y-61470000D03*
X104575000Y-61470000D03*
X101805000Y-61470000D03*
X99035000Y-61470000D03*
%TD*%
D12*
%TO.C,J4*%
X111150000Y-114390000D03*
D13*
X113690000Y-114390000D03*
X116230000Y-114390000D03*
X118770000Y-114390000D03*
X121310000Y-114390000D03*
X123850000Y-114390000D03*
X126390000Y-114390000D03*
X128930000Y-114390000D03*
X131470000Y-114390000D03*
X134010000Y-114390000D03*
X136550000Y-114390000D03*
X139090000Y-114390000D03*
X141630000Y-114390000D03*
X144170000Y-114390000D03*
X146710000Y-114390000D03*
X149250000Y-114390000D03*
X151790000Y-114390000D03*
X154330000Y-114390000D03*
X156870000Y-114390000D03*
X159410000Y-114390000D03*
X161950000Y-114390000D03*
X164490000Y-114390000D03*
X167030000Y-114390000D03*
X169570000Y-114390000D03*
X172110000Y-114390000D03*
X174650000Y-114390000D03*
X177190000Y-114390000D03*
X179730000Y-114390000D03*
X182270000Y-114390000D03*
X184810000Y-114390000D03*
X187350000Y-114390000D03*
X111150000Y-119470000D03*
X113690000Y-119470000D03*
X116230000Y-119470000D03*
X118770000Y-119470000D03*
X121310000Y-119470000D03*
X123850000Y-119470000D03*
X126390000Y-119470000D03*
X128930000Y-119470000D03*
X131470000Y-119470000D03*
X134010000Y-119470000D03*
X136550000Y-119470000D03*
X139090000Y-119470000D03*
X141630000Y-119470000D03*
X144170000Y-119470000D03*
X146710000Y-119470000D03*
X149250000Y-119470000D03*
X151790000Y-119470000D03*
X154330000Y-119470000D03*
X156870000Y-119470000D03*
X159410000Y-119470000D03*
X161950000Y-119470000D03*
X164490000Y-119470000D03*
X167030000Y-119470000D03*
X169570000Y-119470000D03*
X172110000Y-119470000D03*
X174650000Y-119470000D03*
X177190000Y-119470000D03*
X179730000Y-119470000D03*
X182270000Y-119470000D03*
X184810000Y-119470000D03*
X187350000Y-119470000D03*
%TD*%
D10*
%TO.C,H4*%
X203350000Y-127390000D03*
%TD*%
%TO.C,H3*%
X203350000Y-106390000D03*
%TD*%
D12*
%TO.C,J3*%
X111150000Y-94310000D03*
D13*
X113690000Y-94310000D03*
X116230000Y-94310000D03*
X118770000Y-94310000D03*
X121310000Y-94310000D03*
X123850000Y-94310000D03*
X126390000Y-94310000D03*
X128930000Y-94310000D03*
X131470000Y-94310000D03*
X134010000Y-94310000D03*
X136550000Y-94310000D03*
X139090000Y-94310000D03*
X141630000Y-94310000D03*
X144170000Y-94310000D03*
X146710000Y-94310000D03*
X149250000Y-94310000D03*
X151790000Y-94310000D03*
X154330000Y-94310000D03*
X156870000Y-94310000D03*
X159410000Y-94310000D03*
X161950000Y-94310000D03*
X164490000Y-94310000D03*
X167030000Y-94310000D03*
X169570000Y-94310000D03*
X172110000Y-94310000D03*
X174650000Y-94310000D03*
X177190000Y-94310000D03*
X179730000Y-94310000D03*
X182270000Y-94310000D03*
X184810000Y-94310000D03*
X187350000Y-94310000D03*
X111150000Y-99390000D03*
X113690000Y-99390000D03*
X116230000Y-99390000D03*
X118770000Y-99390000D03*
X121310000Y-99390000D03*
X123850000Y-99390000D03*
X126390000Y-99390000D03*
X128930000Y-99390000D03*
X131470000Y-99390000D03*
X134010000Y-99390000D03*
X136550000Y-99390000D03*
X139090000Y-99390000D03*
X141630000Y-99390000D03*
X144170000Y-99390000D03*
X146710000Y-99390000D03*
X149250000Y-99390000D03*
X151790000Y-99390000D03*
X154330000Y-99390000D03*
X156870000Y-99390000D03*
X159410000Y-99390000D03*
X161950000Y-99390000D03*
X164490000Y-99390000D03*
X167030000Y-99390000D03*
X169570000Y-99390000D03*
X172110000Y-99390000D03*
X174650000Y-99390000D03*
X177190000Y-99390000D03*
X179730000Y-99390000D03*
X182270000Y-99390000D03*
X184810000Y-99390000D03*
X187350000Y-99390000D03*
%TD*%
D10*
%TO.C,H2*%
X100950000Y-106390000D03*
%TD*%
D14*
%TO.C,RR1*%
X111110000Y-87390000D03*
D15*
X113650000Y-87390000D03*
X116190000Y-87390000D03*
X118730000Y-87390000D03*
X121270000Y-87390000D03*
X123810000Y-87390000D03*
X126350000Y-87390000D03*
X128890000Y-87390000D03*
X131430000Y-87390000D03*
%TD*%
D12*
%TO.C,J5*%
X111150000Y-134570000D03*
D13*
X113690000Y-134570000D03*
X116230000Y-134570000D03*
X118770000Y-134570000D03*
X121310000Y-134570000D03*
X123850000Y-134570000D03*
X126390000Y-134570000D03*
X128930000Y-134570000D03*
X131470000Y-134570000D03*
X134010000Y-134570000D03*
X136550000Y-134570000D03*
X139090000Y-134570000D03*
X141630000Y-134570000D03*
X144170000Y-134570000D03*
X146710000Y-134570000D03*
X149250000Y-134570000D03*
X151790000Y-134570000D03*
X154330000Y-134570000D03*
X156870000Y-134570000D03*
X159410000Y-134570000D03*
X161950000Y-134570000D03*
X164490000Y-134570000D03*
X167030000Y-134570000D03*
X169570000Y-134570000D03*
X172110000Y-134570000D03*
X174650000Y-134570000D03*
X177190000Y-134570000D03*
X179730000Y-134570000D03*
X182270000Y-134570000D03*
X184810000Y-134570000D03*
X187350000Y-134570000D03*
X111150000Y-139650000D03*
X113690000Y-139650000D03*
X116230000Y-139650000D03*
X118770000Y-139650000D03*
X121310000Y-139650000D03*
X123850000Y-139650000D03*
X126390000Y-139650000D03*
X128930000Y-139650000D03*
X131470000Y-139650000D03*
X134010000Y-139650000D03*
X136550000Y-139650000D03*
X139090000Y-139650000D03*
X141630000Y-139650000D03*
X144170000Y-139650000D03*
X146710000Y-139650000D03*
X149250000Y-139650000D03*
X151790000Y-139650000D03*
X154330000Y-139650000D03*
X156870000Y-139650000D03*
X159410000Y-139650000D03*
X161950000Y-139650000D03*
X164490000Y-139650000D03*
X167030000Y-139650000D03*
X169570000Y-139650000D03*
X172110000Y-139650000D03*
X174650000Y-139650000D03*
X177190000Y-139650000D03*
X179730000Y-139650000D03*
X182270000Y-139650000D03*
X184810000Y-139650000D03*
X187350000Y-139650000D03*
%TD*%
M02*
