M48
; DRILL file KiCad 10.0.1 date 2026-05-18T21:21:05
; FORMAT={-:-/ absolute / metric / decimal}
; #@! TF.CreationDate,2026-05-18T21:21:05+10:00
; #@! TF.GenerationSoftware,Kicad,Pcbnew,10.0.1
; #@! TF.FileFunction,Plated,1,2,PTH
FMAT,2
METRIC
; #@! TA.AperFunction,Plated,PTH,ViaDrill
T1C0.300
; #@! TA.AperFunction,Plated,PTH,ViaDrill
T2C0.400
; #@! TA.AperFunction,Plated,PTH,ComponentDrill
T3C0.800
; #@! TA.AperFunction,Plated,PTH,ComponentDrill
T4C1.000
; #@! TA.AperFunction,Plated,PTH,ComponentDrill
T5C3.200
%
G90
G05
T1
X104.675Y-131.554
X105.25Y-132.19
X105.275Y-130.59
X105.835Y-129.911
X106.25Y-131.89
X106.35Y-79.89
X107.125Y-129.315
X107.345Y-63.79
X107.481Y-132.165
X108.525Y-128.49
X108.929Y-132.615
X111.85Y-63.79
X114.27Y-63.81
X114.57Y-70.89
X114.57Y-75.49
X117.04Y-63.79
X119.65Y-79.79
X119.81Y-63.85
X122.58Y-63.79
X123.85Y-76.89
X125.35Y-63.79
X128.35Y-63.79
X135.25Y-85.39
X137.726Y-84.565
X138.85Y-65.015
X140.35Y-71.39
X141.75Y-65.29
X142.255Y-83.865
X142.65Y-65.965
X143.75Y-66.29
X144.85Y-66.79
X145.95Y-67.465
X147.15Y-67.965
X148.35Y-67.965
X149.75Y-68.465
X150.95Y-68.965
X152.05Y-69.465
X152.05Y-86.09
X153.25Y-69.89
X154.55Y-70.59
X155.85Y-70.765
X159.1Y-88.94
X160.35Y-79.515
X160.85Y-78.39
X161.35Y-77.39
X161.85Y-76.39
X162.35Y-75.39
X162.85Y-74.39
X163.35Y-73.39
X163.35Y-89.79
X163.85Y-72.39
X164.35Y-63.79
X165.85Y-90.49
X166.85Y-63.79
X168.03Y-70.89
X168.03Y-79.78
X168.206Y-90.99
X169.35Y-63.79
X171.2Y-91.54
X171.35Y-63.79
X172.58Y-64.644
X173.05Y-70.89
X173.11Y-79.78
X173.75Y-63.81
X174.95Y-64.194
X176.15Y-63.71
X178.15Y-64.09
X178.19Y-79.78
X178.25Y-70.79
X183.27Y-75.01
X183.765Y-63.79
X186.55Y-63.79
X191.077Y-63.762
X193.75Y-63.99
X194.2Y-100.164
X194.85Y-110.59
X195.45Y-102.465
X195.75Y-107.89
X195.85Y-109.59
X196.45Y-63.79
X196.45Y-72.99
X196.75Y-101.115
X196.95Y-73.89
X197.375Y-96.59
X197.45Y-103.39
X198.075Y-100.79
X198.85Y-101.49
X199.25Y-63.79
X200.25Y-95.69
X201.15Y-88.49
X201.85Y-89.09
X202.05Y-63.79
X202.55Y-89.69
X203.25Y-90.49
X203.95Y-91.29
X204.652Y-63.784
T2
X100.95Y-88.79
X109.45Y-70.89
X132.35Y-71.415
X132.85Y-63.34
X155.43Y-61.47
X157.422Y-63.74
X158.944Y-63.79
X160.25Y-63.79
X161.605Y-63.79
X162.99Y-63.79
X165.49Y-70.89
X186.635Y-66.944
X186.95Y-65.89
X186.995Y-64.778
X188.35Y-70.89
X188.612Y-68.64
X189.45Y-139.65
X189.451Y-99.39
X189.451Y-104.99
X189.451Y-119.47
X190.401Y-97.99
X190.401Y-118.07
X190.401Y-137.39
X191.35Y-142.89
X191.45Y-106.89
X191.45Y-122.69
X192.3Y-105.94
X192.35Y-121.59
X192.4Y-141.64
X193.05Y-143.99
X193.35Y-108.715
X193.35Y-123.69
X195.05Y-119.89
X204.05Y-118.67
T3
X111.11Y-87.39
X113.65Y-87.39
X116.19Y-87.39
X118.73Y-87.39
X121.27Y-87.39
X123.81Y-87.39
X126.35Y-87.39
X128.89Y-87.39
X131.43Y-87.39
T4
X111.15Y-94.31
X111.15Y-99.39
X111.15Y-114.39
X111.15Y-119.47
X111.15Y-134.57
X111.15Y-139.65
X113.69Y-94.31
X113.69Y-99.39
X113.69Y-114.39
X113.69Y-119.47
X113.69Y-134.57
X113.69Y-139.65
X116.23Y-94.31
X116.23Y-99.39
X116.23Y-114.39
X116.23Y-119.47
X116.23Y-134.57
X116.23Y-139.65
X118.77Y-94.31
X118.77Y-99.39
X118.77Y-114.39
X118.77Y-119.47
X118.77Y-134.57
X118.77Y-139.65
X121.31Y-94.31
X121.31Y-99.39
X121.31Y-114.39
X121.31Y-119.47
X121.31Y-134.57
X121.31Y-139.65
X123.85Y-94.31
X123.85Y-99.39
X123.85Y-114.39
X123.85Y-119.47
X123.85Y-134.57
X123.85Y-139.65
X126.39Y-94.31
X126.39Y-99.39
X126.39Y-114.39
X126.39Y-119.47
X126.39Y-134.57
X126.39Y-139.65
X128.93Y-94.31
X128.93Y-99.39
X128.93Y-114.39
X128.93Y-119.47
X128.93Y-134.57
X128.93Y-139.65
X131.47Y-94.31
X131.47Y-99.39
X131.47Y-114.39
X131.47Y-119.47
X131.47Y-134.57
X131.47Y-139.65
X134.01Y-94.31
X134.01Y-99.39
X134.01Y-114.39
X134.01Y-119.47
X134.01Y-134.57
X134.01Y-139.65
X136.55Y-94.31
X136.55Y-99.39
X136.55Y-114.39
X136.55Y-119.47
X136.55Y-134.57
X136.55Y-139.65
X139.09Y-94.31
X139.09Y-99.39
X139.09Y-114.39
X139.09Y-119.47
X139.09Y-134.57
X139.09Y-139.65
X141.63Y-94.31
X141.63Y-99.39
X141.63Y-114.39
X141.63Y-119.47
X141.63Y-134.57
X141.63Y-139.65
X144.17Y-94.31
X144.17Y-99.39
X144.17Y-114.39
X144.17Y-119.47
X144.17Y-134.57
X144.17Y-139.65
X146.71Y-94.31
X146.71Y-99.39
X146.71Y-114.39
X146.71Y-119.47
X146.71Y-134.57
X146.71Y-139.65
X149.25Y-94.31
X149.25Y-99.39
X149.25Y-114.39
X149.25Y-119.47
X149.25Y-134.57
X149.25Y-139.65
X151.79Y-94.31
X151.79Y-99.39
X151.79Y-114.39
X151.79Y-119.47
X151.79Y-134.57
X151.79Y-139.65
X154.33Y-94.31
X154.33Y-99.39
X154.33Y-114.39
X154.33Y-119.47
X154.33Y-134.57
X154.33Y-139.65
X156.87Y-94.31
X156.87Y-99.39
X156.87Y-114.39
X156.87Y-119.47
X156.87Y-134.57
X156.87Y-139.65
X159.41Y-94.31
X159.41Y-99.39
X159.41Y-114.39
X159.41Y-119.47
X159.41Y-134.57
X159.41Y-139.65
X161.95Y-94.31
X161.95Y-99.39
X161.95Y-114.39
X161.95Y-119.47
X161.95Y-134.57
X161.95Y-139.65
X164.49Y-94.31
X164.49Y-99.39
X164.49Y-114.39
X164.49Y-119.47
X164.49Y-134.57
X164.49Y-139.65
X167.03Y-94.31
X167.03Y-99.39
X167.03Y-114.39
X167.03Y-119.47
X167.03Y-134.57
X167.03Y-139.65
X169.57Y-94.31
X169.57Y-99.39
X169.57Y-114.39
X169.57Y-119.47
X169.57Y-134.57
X169.57Y-139.65
X172.11Y-94.31
X172.11Y-99.39
X172.11Y-114.39
X172.11Y-119.47
X172.11Y-134.57
X172.11Y-139.65
X174.65Y-94.31
X174.65Y-99.39
X174.65Y-114.39
X174.65Y-119.47
X174.65Y-134.57
X174.65Y-139.65
X177.19Y-94.31
X177.19Y-99.39
X177.19Y-114.39
X177.19Y-119.47
X177.19Y-134.57
X177.19Y-139.65
X179.73Y-94.31
X179.73Y-99.39
X179.73Y-114.39
X179.73Y-119.47
X179.73Y-134.57
X179.73Y-139.65
X182.27Y-94.31
X182.27Y-99.39
X182.27Y-114.39
X182.27Y-119.47
X182.27Y-134.57
X182.27Y-139.65
X184.81Y-94.31
X184.81Y-99.39
X184.81Y-114.39
X184.81Y-119.47
X184.81Y-134.57
X184.81Y-139.65
X187.35Y-94.31
X187.35Y-99.39
X187.35Y-114.39
X187.35Y-119.47
X187.35Y-134.57
X187.35Y-139.65
T5
X100.95Y-106.39
X100.95Y-127.39
X203.35Y-106.39
X203.35Y-127.39
M30
