%TF.GenerationSoftware,KiCad,Pcbnew,10.0.1*%
%TF.CreationDate,2026-05-18T21:21:10+10:00*%
%TF.ProjectId,ppc-isa-expansion,7070632d-6973-4612-9d65-7870616e7369,0.1*%
%TF.SameCoordinates,Original*%
%TF.FileFunction,Legend,Bot*%
%TF.FilePolarity,Positive*%
%FSLAX46Y46*%
G04 Gerber Fmt 4.6, Leading zero omitted, Abs format (unit mm)*
G04 Created by KiCad (PCBNEW 10.0.1) date 2026-05-18 21:21:10*
%MOMM*%
%LPD*%
G01*
G04 APERTURE LIST*
%ADD10C,0.200000*%
%ADD11C,0.300000*%
G04 APERTURE END LIST*
D10*
X172380326Y-126047275D02*
X172380326Y-125047275D01*
X172380326Y-125047275D02*
X172142231Y-125047275D01*
X172142231Y-125047275D02*
X171999374Y-125094894D01*
X171999374Y-125094894D02*
X171904136Y-125190132D01*
X171904136Y-125190132D02*
X171856517Y-125285370D01*
X171856517Y-125285370D02*
X171808898Y-125475846D01*
X171808898Y-125475846D02*
X171808898Y-125618703D01*
X171808898Y-125618703D02*
X171856517Y-125809179D01*
X171856517Y-125809179D02*
X171904136Y-125904417D01*
X171904136Y-125904417D02*
X171999374Y-125999656D01*
X171999374Y-125999656D02*
X172142231Y-126047275D01*
X172142231Y-126047275D02*
X172380326Y-126047275D01*
X170999374Y-125999656D02*
X171094612Y-126047275D01*
X171094612Y-126047275D02*
X171285088Y-126047275D01*
X171285088Y-126047275D02*
X171380326Y-125999656D01*
X171380326Y-125999656D02*
X171427945Y-125904417D01*
X171427945Y-125904417D02*
X171427945Y-125523465D01*
X171427945Y-125523465D02*
X171380326Y-125428227D01*
X171380326Y-125428227D02*
X171285088Y-125380608D01*
X171285088Y-125380608D02*
X171094612Y-125380608D01*
X171094612Y-125380608D02*
X170999374Y-125428227D01*
X170999374Y-125428227D02*
X170951755Y-125523465D01*
X170951755Y-125523465D02*
X170951755Y-125618703D01*
X170951755Y-125618703D02*
X171427945Y-125713941D01*
X170570802Y-125999656D02*
X170475564Y-126047275D01*
X170475564Y-126047275D02*
X170285088Y-126047275D01*
X170285088Y-126047275D02*
X170189850Y-125999656D01*
X170189850Y-125999656D02*
X170142231Y-125904417D01*
X170142231Y-125904417D02*
X170142231Y-125856798D01*
X170142231Y-125856798D02*
X170189850Y-125761560D01*
X170189850Y-125761560D02*
X170285088Y-125713941D01*
X170285088Y-125713941D02*
X170427945Y-125713941D01*
X170427945Y-125713941D02*
X170523183Y-125666322D01*
X170523183Y-125666322D02*
X170570802Y-125571084D01*
X170570802Y-125571084D02*
X170570802Y-125523465D01*
X170570802Y-125523465D02*
X170523183Y-125428227D01*
X170523183Y-125428227D02*
X170427945Y-125380608D01*
X170427945Y-125380608D02*
X170285088Y-125380608D01*
X170285088Y-125380608D02*
X170189850Y-125428227D01*
X169713659Y-126047275D02*
X169713659Y-125380608D01*
X169713659Y-125047275D02*
X169761278Y-125094894D01*
X169761278Y-125094894D02*
X169713659Y-125142513D01*
X169713659Y-125142513D02*
X169666040Y-125094894D01*
X169666040Y-125094894D02*
X169713659Y-125047275D01*
X169713659Y-125047275D02*
X169713659Y-125142513D01*
X168808898Y-125380608D02*
X168808898Y-126190132D01*
X168808898Y-126190132D02*
X168856517Y-126285370D01*
X168856517Y-126285370D02*
X168904136Y-126332989D01*
X168904136Y-126332989D02*
X168999374Y-126380608D01*
X168999374Y-126380608D02*
X169142231Y-126380608D01*
X169142231Y-126380608D02*
X169237469Y-126332989D01*
X168808898Y-125999656D02*
X168904136Y-126047275D01*
X168904136Y-126047275D02*
X169094612Y-126047275D01*
X169094612Y-126047275D02*
X169189850Y-125999656D01*
X169189850Y-125999656D02*
X169237469Y-125952036D01*
X169237469Y-125952036D02*
X169285088Y-125856798D01*
X169285088Y-125856798D02*
X169285088Y-125571084D01*
X169285088Y-125571084D02*
X169237469Y-125475846D01*
X169237469Y-125475846D02*
X169189850Y-125428227D01*
X169189850Y-125428227D02*
X169094612Y-125380608D01*
X169094612Y-125380608D02*
X168904136Y-125380608D01*
X168904136Y-125380608D02*
X168808898Y-125428227D01*
X168332707Y-125380608D02*
X168332707Y-126047275D01*
X168332707Y-125475846D02*
X168285088Y-125428227D01*
X168285088Y-125428227D02*
X168189850Y-125380608D01*
X168189850Y-125380608D02*
X168046993Y-125380608D01*
X168046993Y-125380608D02*
X167951755Y-125428227D01*
X167951755Y-125428227D02*
X167904136Y-125523465D01*
X167904136Y-125523465D02*
X167904136Y-126047275D01*
X167046993Y-125999656D02*
X167142231Y-126047275D01*
X167142231Y-126047275D02*
X167332707Y-126047275D01*
X167332707Y-126047275D02*
X167427945Y-125999656D01*
X167427945Y-125999656D02*
X167475564Y-125904417D01*
X167475564Y-125904417D02*
X167475564Y-125523465D01*
X167475564Y-125523465D02*
X167427945Y-125428227D01*
X167427945Y-125428227D02*
X167332707Y-125380608D01*
X167332707Y-125380608D02*
X167142231Y-125380608D01*
X167142231Y-125380608D02*
X167046993Y-125428227D01*
X167046993Y-125428227D02*
X166999374Y-125523465D01*
X166999374Y-125523465D02*
X166999374Y-125618703D01*
X166999374Y-125618703D02*
X167475564Y-125713941D01*
X166142231Y-126047275D02*
X166142231Y-125047275D01*
X166142231Y-125999656D02*
X166237469Y-126047275D01*
X166237469Y-126047275D02*
X166427945Y-126047275D01*
X166427945Y-126047275D02*
X166523183Y-125999656D01*
X166523183Y-125999656D02*
X166570802Y-125952036D01*
X166570802Y-125952036D02*
X166618421Y-125856798D01*
X166618421Y-125856798D02*
X166618421Y-125571084D01*
X166618421Y-125571084D02*
X166570802Y-125475846D01*
X166570802Y-125475846D02*
X166523183Y-125428227D01*
X166523183Y-125428227D02*
X166427945Y-125380608D01*
X166427945Y-125380608D02*
X166237469Y-125380608D01*
X166237469Y-125380608D02*
X166142231Y-125428227D01*
X164904135Y-126047275D02*
X164904135Y-125047275D01*
X164904135Y-125428227D02*
X164808897Y-125380608D01*
X164808897Y-125380608D02*
X164618421Y-125380608D01*
X164618421Y-125380608D02*
X164523183Y-125428227D01*
X164523183Y-125428227D02*
X164475564Y-125475846D01*
X164475564Y-125475846D02*
X164427945Y-125571084D01*
X164427945Y-125571084D02*
X164427945Y-125856798D01*
X164427945Y-125856798D02*
X164475564Y-125952036D01*
X164475564Y-125952036D02*
X164523183Y-125999656D01*
X164523183Y-125999656D02*
X164618421Y-126047275D01*
X164618421Y-126047275D02*
X164808897Y-126047275D01*
X164808897Y-126047275D02*
X164904135Y-125999656D01*
X164094611Y-125380608D02*
X163856516Y-126047275D01*
X163618421Y-125380608D02*
X163856516Y-126047275D01*
X163856516Y-126047275D02*
X163951754Y-126285370D01*
X163951754Y-126285370D02*
X163999373Y-126332989D01*
X163999373Y-126332989D02*
X164094611Y-126380608D01*
X162523182Y-125761560D02*
X162046992Y-125761560D01*
X162618420Y-126047275D02*
X162285087Y-125047275D01*
X162285087Y-125047275D02*
X161951754Y-126047275D01*
X161618420Y-125380608D02*
X161618420Y-126047275D01*
X161618420Y-125475846D02*
X161570801Y-125428227D01*
X161570801Y-125428227D02*
X161475563Y-125380608D01*
X161475563Y-125380608D02*
X161332706Y-125380608D01*
X161332706Y-125380608D02*
X161237468Y-125428227D01*
X161237468Y-125428227D02*
X161189849Y-125523465D01*
X161189849Y-125523465D02*
X161189849Y-126047275D01*
X160856515Y-125380608D02*
X160475563Y-125380608D01*
X160713658Y-125047275D02*
X160713658Y-125904417D01*
X160713658Y-125904417D02*
X160666039Y-125999656D01*
X160666039Y-125999656D02*
X160570801Y-126047275D01*
X160570801Y-126047275D02*
X160475563Y-126047275D01*
X160142229Y-126047275D02*
X160142229Y-125047275D01*
X159713658Y-126047275D02*
X159713658Y-125523465D01*
X159713658Y-125523465D02*
X159761277Y-125428227D01*
X159761277Y-125428227D02*
X159856515Y-125380608D01*
X159856515Y-125380608D02*
X159999372Y-125380608D01*
X159999372Y-125380608D02*
X160094610Y-125428227D01*
X160094610Y-125428227D02*
X160142229Y-125475846D01*
X159237467Y-126047275D02*
X159237467Y-125380608D01*
X159237467Y-125571084D02*
X159189848Y-125475846D01*
X159189848Y-125475846D02*
X159142229Y-125428227D01*
X159142229Y-125428227D02*
X159046991Y-125380608D01*
X159046991Y-125380608D02*
X158951753Y-125380608D01*
X158475562Y-126047275D02*
X158570800Y-125999656D01*
X158570800Y-125999656D02*
X158618419Y-125952036D01*
X158618419Y-125952036D02*
X158666038Y-125856798D01*
X158666038Y-125856798D02*
X158666038Y-125571084D01*
X158666038Y-125571084D02*
X158618419Y-125475846D01*
X158618419Y-125475846D02*
X158570800Y-125428227D01*
X158570800Y-125428227D02*
X158475562Y-125380608D01*
X158475562Y-125380608D02*
X158332705Y-125380608D01*
X158332705Y-125380608D02*
X158237467Y-125428227D01*
X158237467Y-125428227D02*
X158189848Y-125475846D01*
X158189848Y-125475846D02*
X158142229Y-125571084D01*
X158142229Y-125571084D02*
X158142229Y-125856798D01*
X158142229Y-125856798D02*
X158189848Y-125952036D01*
X158189848Y-125952036D02*
X158237467Y-125999656D01*
X158237467Y-125999656D02*
X158332705Y-126047275D01*
X158332705Y-126047275D02*
X158475562Y-126047275D01*
X157713657Y-125380608D02*
X157713657Y-126380608D01*
X157713657Y-125428227D02*
X157618419Y-125380608D01*
X157618419Y-125380608D02*
X157427943Y-125380608D01*
X157427943Y-125380608D02*
X157332705Y-125428227D01*
X157332705Y-125428227D02*
X157285086Y-125475846D01*
X157285086Y-125475846D02*
X157237467Y-125571084D01*
X157237467Y-125571084D02*
X157237467Y-125856798D01*
X157237467Y-125856798D02*
X157285086Y-125952036D01*
X157285086Y-125952036D02*
X157332705Y-125999656D01*
X157332705Y-125999656D02*
X157427943Y-126047275D01*
X157427943Y-126047275D02*
X157618419Y-126047275D01*
X157618419Y-126047275D02*
X157713657Y-125999656D01*
X156808895Y-126047275D02*
X156808895Y-125380608D01*
X156808895Y-125047275D02*
X156856514Y-125094894D01*
X156856514Y-125094894D02*
X156808895Y-125142513D01*
X156808895Y-125142513D02*
X156761276Y-125094894D01*
X156761276Y-125094894D02*
X156808895Y-125047275D01*
X156808895Y-125047275D02*
X156808895Y-125142513D01*
X155904134Y-125999656D02*
X155999372Y-126047275D01*
X155999372Y-126047275D02*
X156189848Y-126047275D01*
X156189848Y-126047275D02*
X156285086Y-125999656D01*
X156285086Y-125999656D02*
X156332705Y-125952036D01*
X156332705Y-125952036D02*
X156380324Y-125856798D01*
X156380324Y-125856798D02*
X156380324Y-125571084D01*
X156380324Y-125571084D02*
X156332705Y-125475846D01*
X156332705Y-125475846D02*
X156285086Y-125428227D01*
X156285086Y-125428227D02*
X156189848Y-125380608D01*
X156189848Y-125380608D02*
X155999372Y-125380608D01*
X155999372Y-125380608D02*
X155904134Y-125428227D01*
X155427943Y-125047275D02*
X155523181Y-125237751D01*
X155046991Y-125999656D02*
X154951753Y-126047275D01*
X154951753Y-126047275D02*
X154761277Y-126047275D01*
X154761277Y-126047275D02*
X154666039Y-125999656D01*
X154666039Y-125999656D02*
X154618420Y-125904417D01*
X154618420Y-125904417D02*
X154618420Y-125856798D01*
X154618420Y-125856798D02*
X154666039Y-125761560D01*
X154666039Y-125761560D02*
X154761277Y-125713941D01*
X154761277Y-125713941D02*
X154904134Y-125713941D01*
X154904134Y-125713941D02*
X154999372Y-125666322D01*
X154999372Y-125666322D02*
X155046991Y-125571084D01*
X155046991Y-125571084D02*
X155046991Y-125523465D01*
X155046991Y-125523465D02*
X154999372Y-125428227D01*
X154999372Y-125428227D02*
X154904134Y-125380608D01*
X154904134Y-125380608D02*
X154761277Y-125380608D01*
X154761277Y-125380608D02*
X154666039Y-125428227D01*
X152856515Y-125952036D02*
X152904134Y-125999656D01*
X152904134Y-125999656D02*
X153046991Y-126047275D01*
X153046991Y-126047275D02*
X153142229Y-126047275D01*
X153142229Y-126047275D02*
X153285086Y-125999656D01*
X153285086Y-125999656D02*
X153380324Y-125904417D01*
X153380324Y-125904417D02*
X153427943Y-125809179D01*
X153427943Y-125809179D02*
X153475562Y-125618703D01*
X153475562Y-125618703D02*
X153475562Y-125475846D01*
X153475562Y-125475846D02*
X153427943Y-125285370D01*
X153427943Y-125285370D02*
X153380324Y-125190132D01*
X153380324Y-125190132D02*
X153285086Y-125094894D01*
X153285086Y-125094894D02*
X153142229Y-125047275D01*
X153142229Y-125047275D02*
X153046991Y-125047275D01*
X153046991Y-125047275D02*
X152904134Y-125094894D01*
X152904134Y-125094894D02*
X152856515Y-125142513D01*
X152285086Y-126047275D02*
X152380324Y-125999656D01*
X152380324Y-125999656D02*
X152427943Y-125904417D01*
X152427943Y-125904417D02*
X152427943Y-125047275D01*
X151475562Y-126047275D02*
X151475562Y-125523465D01*
X151475562Y-125523465D02*
X151523181Y-125428227D01*
X151523181Y-125428227D02*
X151618419Y-125380608D01*
X151618419Y-125380608D02*
X151808895Y-125380608D01*
X151808895Y-125380608D02*
X151904133Y-125428227D01*
X151475562Y-125999656D02*
X151570800Y-126047275D01*
X151570800Y-126047275D02*
X151808895Y-126047275D01*
X151808895Y-126047275D02*
X151904133Y-125999656D01*
X151904133Y-125999656D02*
X151951752Y-125904417D01*
X151951752Y-125904417D02*
X151951752Y-125809179D01*
X151951752Y-125809179D02*
X151904133Y-125713941D01*
X151904133Y-125713941D02*
X151808895Y-125666322D01*
X151808895Y-125666322D02*
X151570800Y-125666322D01*
X151570800Y-125666322D02*
X151475562Y-125618703D01*
X150570800Y-125380608D02*
X150570800Y-126047275D01*
X150999371Y-125380608D02*
X150999371Y-125904417D01*
X150999371Y-125904417D02*
X150951752Y-125999656D01*
X150951752Y-125999656D02*
X150856514Y-126047275D01*
X150856514Y-126047275D02*
X150713657Y-126047275D01*
X150713657Y-126047275D02*
X150618419Y-125999656D01*
X150618419Y-125999656D02*
X150570800Y-125952036D01*
X149666038Y-126047275D02*
X149666038Y-125047275D01*
X149666038Y-125999656D02*
X149761276Y-126047275D01*
X149761276Y-126047275D02*
X149951752Y-126047275D01*
X149951752Y-126047275D02*
X150046990Y-125999656D01*
X150046990Y-125999656D02*
X150094609Y-125952036D01*
X150094609Y-125952036D02*
X150142228Y-125856798D01*
X150142228Y-125856798D02*
X150142228Y-125571084D01*
X150142228Y-125571084D02*
X150094609Y-125475846D01*
X150094609Y-125475846D02*
X150046990Y-125428227D01*
X150046990Y-125428227D02*
X149951752Y-125380608D01*
X149951752Y-125380608D02*
X149761276Y-125380608D01*
X149761276Y-125380608D02*
X149666038Y-125428227D01*
X148808895Y-125999656D02*
X148904133Y-126047275D01*
X148904133Y-126047275D02*
X149094609Y-126047275D01*
X149094609Y-126047275D02*
X149189847Y-125999656D01*
X149189847Y-125999656D02*
X149237466Y-125904417D01*
X149237466Y-125904417D02*
X149237466Y-125523465D01*
X149237466Y-125523465D02*
X149189847Y-125428227D01*
X149189847Y-125428227D02*
X149094609Y-125380608D01*
X149094609Y-125380608D02*
X148904133Y-125380608D01*
X148904133Y-125380608D02*
X148808895Y-125428227D01*
X148808895Y-125428227D02*
X148761276Y-125523465D01*
X148761276Y-125523465D02*
X148761276Y-125618703D01*
X148761276Y-125618703D02*
X149237466Y-125713941D01*
X147142228Y-126047275D02*
X147142228Y-125523465D01*
X147142228Y-125523465D02*
X147189847Y-125428227D01*
X147189847Y-125428227D02*
X147285085Y-125380608D01*
X147285085Y-125380608D02*
X147475561Y-125380608D01*
X147475561Y-125380608D02*
X147570799Y-125428227D01*
X147142228Y-125999656D02*
X147237466Y-126047275D01*
X147237466Y-126047275D02*
X147475561Y-126047275D01*
X147475561Y-126047275D02*
X147570799Y-125999656D01*
X147570799Y-125999656D02*
X147618418Y-125904417D01*
X147618418Y-125904417D02*
X147618418Y-125809179D01*
X147618418Y-125809179D02*
X147570799Y-125713941D01*
X147570799Y-125713941D02*
X147475561Y-125666322D01*
X147475561Y-125666322D02*
X147237466Y-125666322D01*
X147237466Y-125666322D02*
X147142228Y-125618703D01*
X146666037Y-125380608D02*
X146666037Y-126047275D01*
X146666037Y-125475846D02*
X146618418Y-125428227D01*
X146618418Y-125428227D02*
X146523180Y-125380608D01*
X146523180Y-125380608D02*
X146380323Y-125380608D01*
X146380323Y-125380608D02*
X146285085Y-125428227D01*
X146285085Y-125428227D02*
X146237466Y-125523465D01*
X146237466Y-125523465D02*
X146237466Y-126047275D01*
X145332704Y-126047275D02*
X145332704Y-125047275D01*
X145332704Y-125999656D02*
X145427942Y-126047275D01*
X145427942Y-126047275D02*
X145618418Y-126047275D01*
X145618418Y-126047275D02*
X145713656Y-125999656D01*
X145713656Y-125999656D02*
X145761275Y-125952036D01*
X145761275Y-125952036D02*
X145808894Y-125856798D01*
X145808894Y-125856798D02*
X145808894Y-125571084D01*
X145808894Y-125571084D02*
X145761275Y-125475846D01*
X145761275Y-125475846D02*
X145713656Y-125428227D01*
X145713656Y-125428227D02*
X145618418Y-125380608D01*
X145618418Y-125380608D02*
X145427942Y-125380608D01*
X145427942Y-125380608D02*
X145332704Y-125428227D01*
X143570799Y-125094894D02*
X143666037Y-125047275D01*
X143666037Y-125047275D02*
X143808894Y-125047275D01*
X143808894Y-125047275D02*
X143951751Y-125094894D01*
X143951751Y-125094894D02*
X144046989Y-125190132D01*
X144046989Y-125190132D02*
X144094608Y-125285370D01*
X144094608Y-125285370D02*
X144142227Y-125475846D01*
X144142227Y-125475846D02*
X144142227Y-125618703D01*
X144142227Y-125618703D02*
X144094608Y-125809179D01*
X144094608Y-125809179D02*
X144046989Y-125904417D01*
X144046989Y-125904417D02*
X143951751Y-125999656D01*
X143951751Y-125999656D02*
X143808894Y-126047275D01*
X143808894Y-126047275D02*
X143713656Y-126047275D01*
X143713656Y-126047275D02*
X143570799Y-125999656D01*
X143570799Y-125999656D02*
X143523180Y-125952036D01*
X143523180Y-125952036D02*
X143523180Y-125618703D01*
X143523180Y-125618703D02*
X143713656Y-125618703D01*
X142666037Y-125380608D02*
X142666037Y-126047275D01*
X143094608Y-125380608D02*
X143094608Y-125904417D01*
X143094608Y-125904417D02*
X143046989Y-125999656D01*
X143046989Y-125999656D02*
X142951751Y-126047275D01*
X142951751Y-126047275D02*
X142808894Y-126047275D01*
X142808894Y-126047275D02*
X142713656Y-125999656D01*
X142713656Y-125999656D02*
X142666037Y-125952036D01*
X142237465Y-125999656D02*
X142142227Y-126047275D01*
X142142227Y-126047275D02*
X141951751Y-126047275D01*
X141951751Y-126047275D02*
X141856513Y-125999656D01*
X141856513Y-125999656D02*
X141808894Y-125904417D01*
X141808894Y-125904417D02*
X141808894Y-125856798D01*
X141808894Y-125856798D02*
X141856513Y-125761560D01*
X141856513Y-125761560D02*
X141951751Y-125713941D01*
X141951751Y-125713941D02*
X142094608Y-125713941D01*
X142094608Y-125713941D02*
X142189846Y-125666322D01*
X142189846Y-125666322D02*
X142237465Y-125571084D01*
X142237465Y-125571084D02*
X142237465Y-125523465D01*
X142237465Y-125523465D02*
X142189846Y-125428227D01*
X142189846Y-125428227D02*
X142094608Y-125380608D01*
X142094608Y-125380608D02*
X141951751Y-125380608D01*
X141951751Y-125380608D02*
X141856513Y-125428227D01*
X141523179Y-125380608D02*
X141142227Y-125380608D01*
X141380322Y-125047275D02*
X141380322Y-125904417D01*
X141380322Y-125904417D02*
X141332703Y-125999656D01*
X141332703Y-125999656D02*
X141237465Y-126047275D01*
X141237465Y-126047275D02*
X141142227Y-126047275D01*
X140380322Y-126047275D02*
X140380322Y-125523465D01*
X140380322Y-125523465D02*
X140427941Y-125428227D01*
X140427941Y-125428227D02*
X140523179Y-125380608D01*
X140523179Y-125380608D02*
X140713655Y-125380608D01*
X140713655Y-125380608D02*
X140808893Y-125428227D01*
X140380322Y-125999656D02*
X140475560Y-126047275D01*
X140475560Y-126047275D02*
X140713655Y-126047275D01*
X140713655Y-126047275D02*
X140808893Y-125999656D01*
X140808893Y-125999656D02*
X140856512Y-125904417D01*
X140856512Y-125904417D02*
X140856512Y-125809179D01*
X140856512Y-125809179D02*
X140808893Y-125713941D01*
X140808893Y-125713941D02*
X140713655Y-125666322D01*
X140713655Y-125666322D02*
X140475560Y-125666322D01*
X140475560Y-125666322D02*
X140380322Y-125618703D01*
X139999369Y-125380608D02*
X139761274Y-126047275D01*
X139761274Y-126047275D02*
X139523179Y-125380608D01*
X138999369Y-126047275D02*
X139094607Y-125999656D01*
X139094607Y-125999656D02*
X139142226Y-125952036D01*
X139142226Y-125952036D02*
X139189845Y-125856798D01*
X139189845Y-125856798D02*
X139189845Y-125571084D01*
X139189845Y-125571084D02*
X139142226Y-125475846D01*
X139142226Y-125475846D02*
X139094607Y-125428227D01*
X139094607Y-125428227D02*
X138999369Y-125380608D01*
X138999369Y-125380608D02*
X138856512Y-125380608D01*
X138856512Y-125380608D02*
X138761274Y-125428227D01*
X138761274Y-125428227D02*
X138713655Y-125475846D01*
X138713655Y-125475846D02*
X138666036Y-125571084D01*
X138666036Y-125571084D02*
X138666036Y-125856798D01*
X138666036Y-125856798D02*
X138713655Y-125952036D01*
X138713655Y-125952036D02*
X138761274Y-125999656D01*
X138761274Y-125999656D02*
X138856512Y-126047275D01*
X138856512Y-126047275D02*
X138999369Y-126047275D01*
X137142226Y-125523465D02*
X136999369Y-125571084D01*
X136999369Y-125571084D02*
X136951750Y-125618703D01*
X136951750Y-125618703D02*
X136904131Y-125713941D01*
X136904131Y-125713941D02*
X136904131Y-125856798D01*
X136904131Y-125856798D02*
X136951750Y-125952036D01*
X136951750Y-125952036D02*
X136999369Y-125999656D01*
X136999369Y-125999656D02*
X137094607Y-126047275D01*
X137094607Y-126047275D02*
X137475559Y-126047275D01*
X137475559Y-126047275D02*
X137475559Y-125047275D01*
X137475559Y-125047275D02*
X137142226Y-125047275D01*
X137142226Y-125047275D02*
X137046988Y-125094894D01*
X137046988Y-125094894D02*
X136999369Y-125142513D01*
X136999369Y-125142513D02*
X136951750Y-125237751D01*
X136951750Y-125237751D02*
X136951750Y-125332989D01*
X136951750Y-125332989D02*
X136999369Y-125428227D01*
X136999369Y-125428227D02*
X137046988Y-125475846D01*
X137046988Y-125475846D02*
X137142226Y-125523465D01*
X137142226Y-125523465D02*
X137475559Y-125523465D01*
X136046988Y-126047275D02*
X136046988Y-125523465D01*
X136046988Y-125523465D02*
X136094607Y-125428227D01*
X136094607Y-125428227D02*
X136189845Y-125380608D01*
X136189845Y-125380608D02*
X136380321Y-125380608D01*
X136380321Y-125380608D02*
X136475559Y-125428227D01*
X136046988Y-125999656D02*
X136142226Y-126047275D01*
X136142226Y-126047275D02*
X136380321Y-126047275D01*
X136380321Y-126047275D02*
X136475559Y-125999656D01*
X136475559Y-125999656D02*
X136523178Y-125904417D01*
X136523178Y-125904417D02*
X136523178Y-125809179D01*
X136523178Y-125809179D02*
X136475559Y-125713941D01*
X136475559Y-125713941D02*
X136380321Y-125666322D01*
X136380321Y-125666322D02*
X136142226Y-125666322D01*
X136142226Y-125666322D02*
X136046988Y-125618703D01*
X135713654Y-125380608D02*
X135332702Y-125380608D01*
X135570797Y-125047275D02*
X135570797Y-125904417D01*
X135570797Y-125904417D02*
X135523178Y-125999656D01*
X135523178Y-125999656D02*
X135427940Y-126047275D01*
X135427940Y-126047275D02*
X135332702Y-126047275D01*
X134999368Y-126047275D02*
X134999368Y-125380608D01*
X134999368Y-125047275D02*
X135046987Y-125094894D01*
X135046987Y-125094894D02*
X134999368Y-125142513D01*
X134999368Y-125142513D02*
X134951749Y-125094894D01*
X134951749Y-125094894D02*
X134999368Y-125047275D01*
X134999368Y-125047275D02*
X134999368Y-125142513D01*
X134570797Y-125999656D02*
X134475559Y-126047275D01*
X134475559Y-126047275D02*
X134285083Y-126047275D01*
X134285083Y-126047275D02*
X134189845Y-125999656D01*
X134189845Y-125999656D02*
X134142226Y-125904417D01*
X134142226Y-125904417D02*
X134142226Y-125856798D01*
X134142226Y-125856798D02*
X134189845Y-125761560D01*
X134189845Y-125761560D02*
X134285083Y-125713941D01*
X134285083Y-125713941D02*
X134427940Y-125713941D01*
X134427940Y-125713941D02*
X134523178Y-125666322D01*
X134523178Y-125666322D02*
X134570797Y-125571084D01*
X134570797Y-125571084D02*
X134570797Y-125523465D01*
X134570797Y-125523465D02*
X134523178Y-125428227D01*
X134523178Y-125428227D02*
X134427940Y-125380608D01*
X134427940Y-125380608D02*
X134285083Y-125380608D01*
X134285083Y-125380608D02*
X134189845Y-125428227D01*
X133856511Y-125380608D02*
X133475559Y-125380608D01*
X133713654Y-125047275D02*
X133713654Y-125904417D01*
X133713654Y-125904417D02*
X133666035Y-125999656D01*
X133666035Y-125999656D02*
X133570797Y-126047275D01*
X133570797Y-126047275D02*
X133475559Y-126047275D01*
X132713654Y-126047275D02*
X132713654Y-125523465D01*
X132713654Y-125523465D02*
X132761273Y-125428227D01*
X132761273Y-125428227D02*
X132856511Y-125380608D01*
X132856511Y-125380608D02*
X133046987Y-125380608D01*
X133046987Y-125380608D02*
X133142225Y-125428227D01*
X132713654Y-125999656D02*
X132808892Y-126047275D01*
X132808892Y-126047275D02*
X133046987Y-126047275D01*
X133046987Y-126047275D02*
X133142225Y-125999656D01*
X133142225Y-125999656D02*
X133189844Y-125904417D01*
X133189844Y-125904417D02*
X133189844Y-125809179D01*
X133189844Y-125809179D02*
X133142225Y-125713941D01*
X133142225Y-125713941D02*
X133046987Y-125666322D01*
X133046987Y-125666322D02*
X132808892Y-125666322D01*
X132808892Y-125666322D02*
X132713654Y-125618703D01*
X172046993Y-127133409D02*
X171904136Y-127181028D01*
X171904136Y-127181028D02*
X171856517Y-127228647D01*
X171856517Y-127228647D02*
X171808898Y-127323885D01*
X171808898Y-127323885D02*
X171808898Y-127466742D01*
X171808898Y-127466742D02*
X171856517Y-127561980D01*
X171856517Y-127561980D02*
X171904136Y-127609600D01*
X171904136Y-127609600D02*
X171999374Y-127657219D01*
X171999374Y-127657219D02*
X172380326Y-127657219D01*
X172380326Y-127657219D02*
X172380326Y-126657219D01*
X172380326Y-126657219D02*
X172046993Y-126657219D01*
X172046993Y-126657219D02*
X171951755Y-126704838D01*
X171951755Y-126704838D02*
X171904136Y-126752457D01*
X171904136Y-126752457D02*
X171856517Y-126847695D01*
X171856517Y-126847695D02*
X171856517Y-126942933D01*
X171856517Y-126942933D02*
X171904136Y-127038171D01*
X171904136Y-127038171D02*
X171951755Y-127085790D01*
X171951755Y-127085790D02*
X172046993Y-127133409D01*
X172046993Y-127133409D02*
X172380326Y-127133409D01*
X170951755Y-127657219D02*
X170951755Y-127133409D01*
X170951755Y-127133409D02*
X170999374Y-127038171D01*
X170999374Y-127038171D02*
X171094612Y-126990552D01*
X171094612Y-126990552D02*
X171285088Y-126990552D01*
X171285088Y-126990552D02*
X171380326Y-127038171D01*
X170951755Y-127609600D02*
X171046993Y-127657219D01*
X171046993Y-127657219D02*
X171285088Y-127657219D01*
X171285088Y-127657219D02*
X171380326Y-127609600D01*
X171380326Y-127609600D02*
X171427945Y-127514361D01*
X171427945Y-127514361D02*
X171427945Y-127419123D01*
X171427945Y-127419123D02*
X171380326Y-127323885D01*
X171380326Y-127323885D02*
X171285088Y-127276266D01*
X171285088Y-127276266D02*
X171046993Y-127276266D01*
X171046993Y-127276266D02*
X170951755Y-127228647D01*
X170523183Y-127609600D02*
X170427945Y-127657219D01*
X170427945Y-127657219D02*
X170237469Y-127657219D01*
X170237469Y-127657219D02*
X170142231Y-127609600D01*
X170142231Y-127609600D02*
X170094612Y-127514361D01*
X170094612Y-127514361D02*
X170094612Y-127466742D01*
X170094612Y-127466742D02*
X170142231Y-127371504D01*
X170142231Y-127371504D02*
X170237469Y-127323885D01*
X170237469Y-127323885D02*
X170380326Y-127323885D01*
X170380326Y-127323885D02*
X170475564Y-127276266D01*
X170475564Y-127276266D02*
X170523183Y-127181028D01*
X170523183Y-127181028D02*
X170523183Y-127133409D01*
X170523183Y-127133409D02*
X170475564Y-127038171D01*
X170475564Y-127038171D02*
X170380326Y-126990552D01*
X170380326Y-126990552D02*
X170237469Y-126990552D01*
X170237469Y-126990552D02*
X170142231Y-127038171D01*
X169285088Y-127609600D02*
X169380326Y-127657219D01*
X169380326Y-127657219D02*
X169570802Y-127657219D01*
X169570802Y-127657219D02*
X169666040Y-127609600D01*
X169666040Y-127609600D02*
X169713659Y-127514361D01*
X169713659Y-127514361D02*
X169713659Y-127133409D01*
X169713659Y-127133409D02*
X169666040Y-127038171D01*
X169666040Y-127038171D02*
X169570802Y-126990552D01*
X169570802Y-126990552D02*
X169380326Y-126990552D01*
X169380326Y-126990552D02*
X169285088Y-127038171D01*
X169285088Y-127038171D02*
X169237469Y-127133409D01*
X169237469Y-127133409D02*
X169237469Y-127228647D01*
X169237469Y-127228647D02*
X169713659Y-127323885D01*
X168380326Y-127657219D02*
X168380326Y-126657219D01*
X168380326Y-127609600D02*
X168475564Y-127657219D01*
X168475564Y-127657219D02*
X168666040Y-127657219D01*
X168666040Y-127657219D02*
X168761278Y-127609600D01*
X168761278Y-127609600D02*
X168808897Y-127561980D01*
X168808897Y-127561980D02*
X168856516Y-127466742D01*
X168856516Y-127466742D02*
X168856516Y-127181028D01*
X168856516Y-127181028D02*
X168808897Y-127085790D01*
X168808897Y-127085790D02*
X168761278Y-127038171D01*
X168761278Y-127038171D02*
X168666040Y-126990552D01*
X168666040Y-126990552D02*
X168475564Y-126990552D01*
X168475564Y-126990552D02*
X168380326Y-127038171D01*
X166999373Y-127657219D02*
X167094611Y-127609600D01*
X167094611Y-127609600D02*
X167142230Y-127561980D01*
X167142230Y-127561980D02*
X167189849Y-127466742D01*
X167189849Y-127466742D02*
X167189849Y-127181028D01*
X167189849Y-127181028D02*
X167142230Y-127085790D01*
X167142230Y-127085790D02*
X167094611Y-127038171D01*
X167094611Y-127038171D02*
X166999373Y-126990552D01*
X166999373Y-126990552D02*
X166856516Y-126990552D01*
X166856516Y-126990552D02*
X166761278Y-127038171D01*
X166761278Y-127038171D02*
X166713659Y-127085790D01*
X166713659Y-127085790D02*
X166666040Y-127181028D01*
X166666040Y-127181028D02*
X166666040Y-127466742D01*
X166666040Y-127466742D02*
X166713659Y-127561980D01*
X166713659Y-127561980D02*
X166761278Y-127609600D01*
X166761278Y-127609600D02*
X166856516Y-127657219D01*
X166856516Y-127657219D02*
X166999373Y-127657219D01*
X166237468Y-126990552D02*
X166237468Y-127657219D01*
X166237468Y-127085790D02*
X166189849Y-127038171D01*
X166189849Y-127038171D02*
X166094611Y-126990552D01*
X166094611Y-126990552D02*
X165951754Y-126990552D01*
X165951754Y-126990552D02*
X165856516Y-127038171D01*
X165856516Y-127038171D02*
X165808897Y-127133409D01*
X165808897Y-127133409D02*
X165808897Y-127657219D01*
X164713658Y-126990552D02*
X164332706Y-126990552D01*
X164570801Y-126657219D02*
X164570801Y-127514361D01*
X164570801Y-127514361D02*
X164523182Y-127609600D01*
X164523182Y-127609600D02*
X164427944Y-127657219D01*
X164427944Y-127657219D02*
X164332706Y-127657219D01*
X163999372Y-127657219D02*
X163999372Y-126657219D01*
X163570801Y-127657219D02*
X163570801Y-127133409D01*
X163570801Y-127133409D02*
X163618420Y-127038171D01*
X163618420Y-127038171D02*
X163713658Y-126990552D01*
X163713658Y-126990552D02*
X163856515Y-126990552D01*
X163856515Y-126990552D02*
X163951753Y-127038171D01*
X163951753Y-127038171D02*
X163999372Y-127085790D01*
X162713658Y-127609600D02*
X162808896Y-127657219D01*
X162808896Y-127657219D02*
X162999372Y-127657219D01*
X162999372Y-127657219D02*
X163094610Y-127609600D01*
X163094610Y-127609600D02*
X163142229Y-127514361D01*
X163142229Y-127514361D02*
X163142229Y-127133409D01*
X163142229Y-127133409D02*
X163094610Y-127038171D01*
X163094610Y-127038171D02*
X162999372Y-126990552D01*
X162999372Y-126990552D02*
X162808896Y-126990552D01*
X162808896Y-126990552D02*
X162713658Y-127038171D01*
X162713658Y-127038171D02*
X162666039Y-127133409D01*
X162666039Y-127133409D02*
X162666039Y-127228647D01*
X162666039Y-127228647D02*
X163142229Y-127323885D01*
X161570800Y-126990552D02*
X161380324Y-127657219D01*
X161380324Y-127657219D02*
X161189848Y-127181028D01*
X161189848Y-127181028D02*
X160999372Y-127657219D01*
X160999372Y-127657219D02*
X160808896Y-126990552D01*
X160285086Y-127657219D02*
X160380324Y-127609600D01*
X160380324Y-127609600D02*
X160427943Y-127561980D01*
X160427943Y-127561980D02*
X160475562Y-127466742D01*
X160475562Y-127466742D02*
X160475562Y-127181028D01*
X160475562Y-127181028D02*
X160427943Y-127085790D01*
X160427943Y-127085790D02*
X160380324Y-127038171D01*
X160380324Y-127038171D02*
X160285086Y-126990552D01*
X160285086Y-126990552D02*
X160142229Y-126990552D01*
X160142229Y-126990552D02*
X160046991Y-127038171D01*
X160046991Y-127038171D02*
X159999372Y-127085790D01*
X159999372Y-127085790D02*
X159951753Y-127181028D01*
X159951753Y-127181028D02*
X159951753Y-127466742D01*
X159951753Y-127466742D02*
X159999372Y-127561980D01*
X159999372Y-127561980D02*
X160046991Y-127609600D01*
X160046991Y-127609600D02*
X160142229Y-127657219D01*
X160142229Y-127657219D02*
X160285086Y-127657219D01*
X159523181Y-127657219D02*
X159523181Y-126990552D01*
X159523181Y-127181028D02*
X159475562Y-127085790D01*
X159475562Y-127085790D02*
X159427943Y-127038171D01*
X159427943Y-127038171D02*
X159332705Y-126990552D01*
X159332705Y-126990552D02*
X159237467Y-126990552D01*
X158904133Y-127657219D02*
X158904133Y-126657219D01*
X158808895Y-127276266D02*
X158523181Y-127657219D01*
X158523181Y-126990552D02*
X158904133Y-127371504D01*
X157189847Y-127657219D02*
X157285085Y-127609600D01*
X157285085Y-127609600D02*
X157332704Y-127561980D01*
X157332704Y-127561980D02*
X157380323Y-127466742D01*
X157380323Y-127466742D02*
X157380323Y-127181028D01*
X157380323Y-127181028D02*
X157332704Y-127085790D01*
X157332704Y-127085790D02*
X157285085Y-127038171D01*
X157285085Y-127038171D02*
X157189847Y-126990552D01*
X157189847Y-126990552D02*
X157046990Y-126990552D01*
X157046990Y-126990552D02*
X156951752Y-127038171D01*
X156951752Y-127038171D02*
X156904133Y-127085790D01*
X156904133Y-127085790D02*
X156856514Y-127181028D01*
X156856514Y-127181028D02*
X156856514Y-127466742D01*
X156856514Y-127466742D02*
X156904133Y-127561980D01*
X156904133Y-127561980D02*
X156951752Y-127609600D01*
X156951752Y-127609600D02*
X157046990Y-127657219D01*
X157046990Y-127657219D02*
X157189847Y-127657219D01*
X156570799Y-126990552D02*
X156189847Y-126990552D01*
X156427942Y-127657219D02*
X156427942Y-126800076D01*
X156427942Y-126800076D02*
X156380323Y-126704838D01*
X156380323Y-126704838D02*
X156285085Y-126657219D01*
X156285085Y-126657219D02*
X156189847Y-126657219D01*
X154808894Y-126657219D02*
X154808894Y-127371504D01*
X154808894Y-127371504D02*
X154856513Y-127514361D01*
X154856513Y-127514361D02*
X154951751Y-127609600D01*
X154951751Y-127609600D02*
X155094608Y-127657219D01*
X155094608Y-127657219D02*
X155189846Y-127657219D01*
X154189846Y-127657219D02*
X154285084Y-127609600D01*
X154285084Y-127609600D02*
X154332703Y-127561980D01*
X154332703Y-127561980D02*
X154380322Y-127466742D01*
X154380322Y-127466742D02*
X154380322Y-127181028D01*
X154380322Y-127181028D02*
X154332703Y-127085790D01*
X154332703Y-127085790D02*
X154285084Y-127038171D01*
X154285084Y-127038171D02*
X154189846Y-126990552D01*
X154189846Y-126990552D02*
X154046989Y-126990552D01*
X154046989Y-126990552D02*
X153951751Y-127038171D01*
X153951751Y-127038171D02*
X153904132Y-127085790D01*
X153904132Y-127085790D02*
X153856513Y-127181028D01*
X153856513Y-127181028D02*
X153856513Y-127466742D01*
X153856513Y-127466742D02*
X153904132Y-127561980D01*
X153904132Y-127561980D02*
X153951751Y-127609600D01*
X153951751Y-127609600D02*
X154046989Y-127657219D01*
X154046989Y-127657219D02*
X154189846Y-127657219D01*
X152999370Y-127657219D02*
X152999370Y-127133409D01*
X152999370Y-127133409D02*
X153046989Y-127038171D01*
X153046989Y-127038171D02*
X153142227Y-126990552D01*
X153142227Y-126990552D02*
X153332703Y-126990552D01*
X153332703Y-126990552D02*
X153427941Y-127038171D01*
X152999370Y-127609600D02*
X153094608Y-127657219D01*
X153094608Y-127657219D02*
X153332703Y-127657219D01*
X153332703Y-127657219D02*
X153427941Y-127609600D01*
X153427941Y-127609600D02*
X153475560Y-127514361D01*
X153475560Y-127514361D02*
X153475560Y-127419123D01*
X153475560Y-127419123D02*
X153427941Y-127323885D01*
X153427941Y-127323885D02*
X153332703Y-127276266D01*
X153332703Y-127276266D02*
X153094608Y-127276266D01*
X153094608Y-127276266D02*
X152999370Y-127228647D01*
X153475560Y-126752457D02*
X153427941Y-126704838D01*
X153427941Y-126704838D02*
X153332703Y-126657219D01*
X153332703Y-126657219D02*
X153142227Y-126752457D01*
X153142227Y-126752457D02*
X153046989Y-126704838D01*
X153046989Y-126704838D02*
X152999370Y-126657219D01*
X152380322Y-127657219D02*
X152475560Y-127609600D01*
X152475560Y-127609600D02*
X152523179Y-127561980D01*
X152523179Y-127561980D02*
X152570798Y-127466742D01*
X152570798Y-127466742D02*
X152570798Y-127181028D01*
X152570798Y-127181028D02*
X152523179Y-127085790D01*
X152523179Y-127085790D02*
X152475560Y-127038171D01*
X152475560Y-127038171D02*
X152380322Y-126990552D01*
X152380322Y-126990552D02*
X152237465Y-126990552D01*
X152237465Y-126990552D02*
X152142227Y-127038171D01*
X152142227Y-127038171D02*
X152094608Y-127085790D01*
X152094608Y-127085790D02*
X152046989Y-127181028D01*
X152046989Y-127181028D02*
X152046989Y-127466742D01*
X152046989Y-127466742D02*
X152094608Y-127561980D01*
X152094608Y-127561980D02*
X152142227Y-127609600D01*
X152142227Y-127609600D02*
X152237465Y-127657219D01*
X152237465Y-127657219D02*
X152380322Y-127657219D01*
X150570798Y-128038171D02*
X150618417Y-127990552D01*
X150618417Y-127990552D02*
X150713655Y-127847695D01*
X150713655Y-127847695D02*
X150761274Y-127752457D01*
X150761274Y-127752457D02*
X150808893Y-127609600D01*
X150808893Y-127609600D02*
X150856512Y-127371504D01*
X150856512Y-127371504D02*
X150856512Y-127181028D01*
X150856512Y-127181028D02*
X150808893Y-126942933D01*
X150808893Y-126942933D02*
X150761274Y-126800076D01*
X150761274Y-126800076D02*
X150713655Y-126704838D01*
X150713655Y-126704838D02*
X150618417Y-126561980D01*
X150618417Y-126561980D02*
X150570798Y-126514361D01*
X149808893Y-127609600D02*
X149904131Y-127657219D01*
X149904131Y-127657219D02*
X150094607Y-127657219D01*
X150094607Y-127657219D02*
X150189845Y-127609600D01*
X150189845Y-127609600D02*
X150237464Y-127514361D01*
X150237464Y-127514361D02*
X150237464Y-127133409D01*
X150237464Y-127133409D02*
X150189845Y-127038171D01*
X150189845Y-127038171D02*
X150094607Y-126990552D01*
X150094607Y-126990552D02*
X149904131Y-126990552D01*
X149904131Y-126990552D02*
X149808893Y-127038171D01*
X149808893Y-127038171D02*
X149761274Y-127133409D01*
X149761274Y-127133409D02*
X149761274Y-127228647D01*
X149761274Y-127228647D02*
X150237464Y-127323885D01*
X149332702Y-126990552D02*
X149332702Y-127657219D01*
X149332702Y-127085790D02*
X149285083Y-127038171D01*
X149285083Y-127038171D02*
X149189845Y-126990552D01*
X149189845Y-126990552D02*
X149046988Y-126990552D01*
X149046988Y-126990552D02*
X148951750Y-127038171D01*
X148951750Y-127038171D02*
X148904131Y-127133409D01*
X148904131Y-127133409D02*
X148904131Y-127657219D01*
X148427940Y-127657219D02*
X148427940Y-126990552D01*
X148427940Y-126657219D02*
X148475559Y-126704838D01*
X148475559Y-126704838D02*
X148427940Y-126752457D01*
X148427940Y-126752457D02*
X148380321Y-126704838D01*
X148380321Y-126704838D02*
X148427940Y-126657219D01*
X148427940Y-126657219D02*
X148427940Y-126752457D01*
X147523179Y-127657219D02*
X147523179Y-126657219D01*
X147523179Y-127609600D02*
X147618417Y-127657219D01*
X147618417Y-127657219D02*
X147808893Y-127657219D01*
X147808893Y-127657219D02*
X147904131Y-127609600D01*
X147904131Y-127609600D02*
X147951750Y-127561980D01*
X147951750Y-127561980D02*
X147999369Y-127466742D01*
X147999369Y-127466742D02*
X147999369Y-127181028D01*
X147999369Y-127181028D02*
X147951750Y-127085790D01*
X147951750Y-127085790D02*
X147904131Y-127038171D01*
X147904131Y-127038171D02*
X147808893Y-126990552D01*
X147808893Y-126990552D02*
X147618417Y-126990552D01*
X147618417Y-126990552D02*
X147523179Y-127038171D01*
X146666036Y-127609600D02*
X146761274Y-127657219D01*
X146761274Y-127657219D02*
X146951750Y-127657219D01*
X146951750Y-127657219D02*
X147046988Y-127609600D01*
X147046988Y-127609600D02*
X147094607Y-127514361D01*
X147094607Y-127514361D02*
X147094607Y-127133409D01*
X147094607Y-127133409D02*
X147046988Y-127038171D01*
X147046988Y-127038171D02*
X146951750Y-126990552D01*
X146951750Y-126990552D02*
X146761274Y-126990552D01*
X146761274Y-126990552D02*
X146666036Y-127038171D01*
X146666036Y-127038171D02*
X146618417Y-127133409D01*
X146618417Y-127133409D02*
X146618417Y-127228647D01*
X146618417Y-127228647D02*
X147094607Y-127323885D01*
X146189845Y-127561980D02*
X146142226Y-127609600D01*
X146142226Y-127609600D02*
X146189845Y-127657219D01*
X146189845Y-127657219D02*
X146237464Y-127609600D01*
X146237464Y-127609600D02*
X146189845Y-127561980D01*
X146189845Y-127561980D02*
X146189845Y-127657219D01*
X145713655Y-126990552D02*
X145713655Y-127657219D01*
X145713655Y-127085790D02*
X145666036Y-127038171D01*
X145666036Y-127038171D02*
X145570798Y-126990552D01*
X145570798Y-126990552D02*
X145427941Y-126990552D01*
X145427941Y-126990552D02*
X145332703Y-127038171D01*
X145332703Y-127038171D02*
X145285084Y-127133409D01*
X145285084Y-127133409D02*
X145285084Y-127657219D01*
X144427941Y-127609600D02*
X144523179Y-127657219D01*
X144523179Y-127657219D02*
X144713655Y-127657219D01*
X144713655Y-127657219D02*
X144808893Y-127609600D01*
X144808893Y-127609600D02*
X144856512Y-127514361D01*
X144856512Y-127514361D02*
X144856512Y-127133409D01*
X144856512Y-127133409D02*
X144808893Y-127038171D01*
X144808893Y-127038171D02*
X144713655Y-126990552D01*
X144713655Y-126990552D02*
X144523179Y-126990552D01*
X144523179Y-126990552D02*
X144427941Y-127038171D01*
X144427941Y-127038171D02*
X144380322Y-127133409D01*
X144380322Y-127133409D02*
X144380322Y-127228647D01*
X144380322Y-127228647D02*
X144856512Y-127323885D01*
X144094607Y-126990552D02*
X143713655Y-126990552D01*
X143951750Y-126657219D02*
X143951750Y-127514361D01*
X143951750Y-127514361D02*
X143904131Y-127609600D01*
X143904131Y-127609600D02*
X143808893Y-127657219D01*
X143808893Y-127657219D02*
X143713655Y-127657219D01*
X143475559Y-128038171D02*
X143427940Y-127990552D01*
X143427940Y-127990552D02*
X143332702Y-127847695D01*
X143332702Y-127847695D02*
X143285083Y-127752457D01*
X143285083Y-127752457D02*
X143237464Y-127609600D01*
X143237464Y-127609600D02*
X143189845Y-127371504D01*
X143189845Y-127371504D02*
X143189845Y-127181028D01*
X143189845Y-127181028D02*
X143237464Y-126942933D01*
X143237464Y-126942933D02*
X143285083Y-126800076D01*
X143285083Y-126800076D02*
X143332702Y-126704838D01*
X143332702Y-126704838D02*
X143427940Y-126561980D01*
X143427940Y-126561980D02*
X143475559Y-126514361D01*
X141523178Y-127657219D02*
X141523178Y-127133409D01*
X141523178Y-127133409D02*
X141570797Y-127038171D01*
X141570797Y-127038171D02*
X141666035Y-126990552D01*
X141666035Y-126990552D02*
X141856511Y-126990552D01*
X141856511Y-126990552D02*
X141951749Y-127038171D01*
X141523178Y-127609600D02*
X141618416Y-127657219D01*
X141618416Y-127657219D02*
X141856511Y-127657219D01*
X141856511Y-127657219D02*
X141951749Y-127609600D01*
X141951749Y-127609600D02*
X141999368Y-127514361D01*
X141999368Y-127514361D02*
X141999368Y-127419123D01*
X141999368Y-127419123D02*
X141951749Y-127323885D01*
X141951749Y-127323885D02*
X141856511Y-127276266D01*
X141856511Y-127276266D02*
X141618416Y-127276266D01*
X141618416Y-127276266D02*
X141523178Y-127228647D01*
X141046987Y-126990552D02*
X141046987Y-127657219D01*
X141046987Y-127085790D02*
X140999368Y-127038171D01*
X140999368Y-127038171D02*
X140904130Y-126990552D01*
X140904130Y-126990552D02*
X140761273Y-126990552D01*
X140761273Y-126990552D02*
X140666035Y-127038171D01*
X140666035Y-127038171D02*
X140618416Y-127133409D01*
X140618416Y-127133409D02*
X140618416Y-127657219D01*
X139713654Y-127657219D02*
X139713654Y-126657219D01*
X139713654Y-127609600D02*
X139808892Y-127657219D01*
X139808892Y-127657219D02*
X139999368Y-127657219D01*
X139999368Y-127657219D02*
X140094606Y-127609600D01*
X140094606Y-127609600D02*
X140142225Y-127561980D01*
X140142225Y-127561980D02*
X140189844Y-127466742D01*
X140189844Y-127466742D02*
X140189844Y-127181028D01*
X140189844Y-127181028D02*
X140142225Y-127085790D01*
X140142225Y-127085790D02*
X140094606Y-127038171D01*
X140094606Y-127038171D02*
X139999368Y-126990552D01*
X139999368Y-126990552D02*
X139808892Y-126990552D01*
X139808892Y-126990552D02*
X139713654Y-127038171D01*
X137904130Y-127657219D02*
X138237463Y-127181028D01*
X138475558Y-127657219D02*
X138475558Y-126657219D01*
X138475558Y-126657219D02*
X138094606Y-126657219D01*
X138094606Y-126657219D02*
X137999368Y-126704838D01*
X137999368Y-126704838D02*
X137951749Y-126752457D01*
X137951749Y-126752457D02*
X137904130Y-126847695D01*
X137904130Y-126847695D02*
X137904130Y-126990552D01*
X137904130Y-126990552D02*
X137951749Y-127085790D01*
X137951749Y-127085790D02*
X137999368Y-127133409D01*
X137999368Y-127133409D02*
X138094606Y-127181028D01*
X138094606Y-127181028D02*
X138475558Y-127181028D01*
X137094606Y-127609600D02*
X137189844Y-127657219D01*
X137189844Y-127657219D02*
X137380320Y-127657219D01*
X137380320Y-127657219D02*
X137475558Y-127609600D01*
X137475558Y-127609600D02*
X137523177Y-127514361D01*
X137523177Y-127514361D02*
X137523177Y-127133409D01*
X137523177Y-127133409D02*
X137475558Y-127038171D01*
X137475558Y-127038171D02*
X137380320Y-126990552D01*
X137380320Y-126990552D02*
X137189844Y-126990552D01*
X137189844Y-126990552D02*
X137094606Y-127038171D01*
X137094606Y-127038171D02*
X137046987Y-127133409D01*
X137046987Y-127133409D02*
X137046987Y-127228647D01*
X137046987Y-127228647D02*
X137523177Y-127323885D01*
X136761272Y-126990552D02*
X136380320Y-126990552D01*
X136618415Y-126657219D02*
X136618415Y-127514361D01*
X136618415Y-127514361D02*
X136570796Y-127609600D01*
X136570796Y-127609600D02*
X136475558Y-127657219D01*
X136475558Y-127657219D02*
X136380320Y-127657219D01*
X136046986Y-127657219D02*
X136046986Y-126990552D01*
X136046986Y-127181028D02*
X135999367Y-127085790D01*
X135999367Y-127085790D02*
X135951748Y-127038171D01*
X135951748Y-127038171D02*
X135856510Y-126990552D01*
X135856510Y-126990552D02*
X135761272Y-126990552D01*
X135285081Y-127657219D02*
X135380319Y-127609600D01*
X135380319Y-127609600D02*
X135427938Y-127561980D01*
X135427938Y-127561980D02*
X135475557Y-127466742D01*
X135475557Y-127466742D02*
X135475557Y-127181028D01*
X135475557Y-127181028D02*
X135427938Y-127085790D01*
X135427938Y-127085790D02*
X135380319Y-127038171D01*
X135380319Y-127038171D02*
X135285081Y-126990552D01*
X135285081Y-126990552D02*
X135142224Y-126990552D01*
X135142224Y-126990552D02*
X135046986Y-127038171D01*
X135046986Y-127038171D02*
X134999367Y-127085790D01*
X134999367Y-127085790D02*
X134951748Y-127181028D01*
X134951748Y-127181028D02*
X134951748Y-127466742D01*
X134951748Y-127466742D02*
X134999367Y-127561980D01*
X134999367Y-127561980D02*
X135046986Y-127609600D01*
X135046986Y-127609600D02*
X135142224Y-127657219D01*
X135142224Y-127657219D02*
X135285081Y-127657219D01*
X134666033Y-126990552D02*
X134285081Y-126990552D01*
X134523176Y-126657219D02*
X134523176Y-127514361D01*
X134523176Y-127514361D02*
X134475557Y-127609600D01*
X134475557Y-127609600D02*
X134380319Y-127657219D01*
X134380319Y-127657219D02*
X134285081Y-127657219D01*
X133951747Y-127657219D02*
X133951747Y-126657219D01*
X133523176Y-127657219D02*
X133523176Y-127133409D01*
X133523176Y-127133409D02*
X133570795Y-127038171D01*
X133570795Y-127038171D02*
X133666033Y-126990552D01*
X133666033Y-126990552D02*
X133808890Y-126990552D01*
X133808890Y-126990552D02*
X133904128Y-127038171D01*
X133904128Y-127038171D02*
X133951747Y-127085790D01*
X132666033Y-127609600D02*
X132761271Y-127657219D01*
X132761271Y-127657219D02*
X132951747Y-127657219D01*
X132951747Y-127657219D02*
X133046985Y-127609600D01*
X133046985Y-127609600D02*
X133094604Y-127514361D01*
X133094604Y-127514361D02*
X133094604Y-127133409D01*
X133094604Y-127133409D02*
X133046985Y-127038171D01*
X133046985Y-127038171D02*
X132951747Y-126990552D01*
X132951747Y-126990552D02*
X132761271Y-126990552D01*
X132761271Y-126990552D02*
X132666033Y-127038171D01*
X132666033Y-127038171D02*
X132618414Y-127133409D01*
X132618414Y-127133409D02*
X132618414Y-127228647D01*
X132618414Y-127228647D02*
X133094604Y-127323885D01*
X132046985Y-127657219D02*
X132142223Y-127609600D01*
X132142223Y-127609600D02*
X132189842Y-127561980D01*
X132189842Y-127561980D02*
X132237461Y-127466742D01*
X132237461Y-127466742D02*
X132237461Y-127181028D01*
X132237461Y-127181028D02*
X132189842Y-127085790D01*
X132189842Y-127085790D02*
X132142223Y-127038171D01*
X132142223Y-127038171D02*
X132046985Y-126990552D01*
X132046985Y-126990552D02*
X131904128Y-126990552D01*
X131904128Y-126990552D02*
X131808890Y-127038171D01*
X131808890Y-127038171D02*
X131761271Y-127085790D01*
X131761271Y-127085790D02*
X131713652Y-127181028D01*
X131713652Y-127181028D02*
X131713652Y-127466742D01*
X131713652Y-127466742D02*
X131761271Y-127561980D01*
X131761271Y-127561980D02*
X131808890Y-127609600D01*
X131808890Y-127609600D02*
X131904128Y-127657219D01*
X131904128Y-127657219D02*
X132046985Y-127657219D01*
X131285080Y-127657219D02*
X131285080Y-126990552D01*
X131285080Y-127181028D02*
X131237461Y-127085790D01*
X131237461Y-127085790D02*
X131189842Y-127038171D01*
X131189842Y-127038171D02*
X131094604Y-126990552D01*
X131094604Y-126990552D02*
X130999366Y-126990552D01*
X130761270Y-126990552D02*
X130523175Y-127657219D01*
X130285080Y-126990552D02*
X130523175Y-127657219D01*
X130523175Y-127657219D02*
X130618413Y-127895314D01*
X130618413Y-127895314D02*
X130666032Y-127942933D01*
X130666032Y-127942933D02*
X130761270Y-127990552D01*
D11*
X119138346Y-125990828D02*
X118781203Y-126990828D01*
X118781203Y-126990828D02*
X118424060Y-125990828D01*
X117852632Y-126847971D02*
X117781203Y-126919400D01*
X117781203Y-126919400D02*
X117852632Y-126990828D01*
X117852632Y-126990828D02*
X117924060Y-126919400D01*
X117924060Y-126919400D02*
X117852632Y-126847971D01*
X117852632Y-126847971D02*
X117852632Y-126990828D01*
X115209774Y-126990828D02*
X116066917Y-126990828D01*
X115638346Y-126990828D02*
X115638346Y-125490828D01*
X115638346Y-125490828D02*
X115781203Y-125705114D01*
X115781203Y-125705114D02*
X115924060Y-125847971D01*
X115924060Y-125847971D02*
X116066917Y-125919400D01*
X114566918Y-126847971D02*
X114495489Y-126919400D01*
X114495489Y-126919400D02*
X114566918Y-126990828D01*
X114566918Y-126990828D02*
X114638346Y-126919400D01*
X114638346Y-126919400D02*
X114566918Y-126847971D01*
X114566918Y-126847971D02*
X114566918Y-126990828D01*
X113566917Y-125490828D02*
X113424060Y-125490828D01*
X113424060Y-125490828D02*
X113281203Y-125562257D01*
X113281203Y-125562257D02*
X113209775Y-125633685D01*
X113209775Y-125633685D02*
X113138346Y-125776542D01*
X113138346Y-125776542D02*
X113066917Y-126062257D01*
X113066917Y-126062257D02*
X113066917Y-126419400D01*
X113066917Y-126419400D02*
X113138346Y-126705114D01*
X113138346Y-126705114D02*
X113209775Y-126847971D01*
X113209775Y-126847971D02*
X113281203Y-126919400D01*
X113281203Y-126919400D02*
X113424060Y-126990828D01*
X113424060Y-126990828D02*
X113566917Y-126990828D01*
X113566917Y-126990828D02*
X113709775Y-126919400D01*
X113709775Y-126919400D02*
X113781203Y-126847971D01*
X113781203Y-126847971D02*
X113852632Y-126705114D01*
X113852632Y-126705114D02*
X113924060Y-126419400D01*
X113924060Y-126419400D02*
X113924060Y-126062257D01*
X113924060Y-126062257D02*
X113852632Y-125776542D01*
X113852632Y-125776542D02*
X113781203Y-125633685D01*
X113781203Y-125633685D02*
X113709775Y-125562257D01*
X113709775Y-125562257D02*
X113566917Y-125490828D01*
X173195489Y-107190828D02*
X173195489Y-105690828D01*
X172552632Y-107190828D02*
X172552632Y-106405114D01*
X172552632Y-106405114D02*
X172624060Y-106262257D01*
X172624060Y-106262257D02*
X172766917Y-106190828D01*
X172766917Y-106190828D02*
X172981203Y-106190828D01*
X172981203Y-106190828D02*
X173124060Y-106262257D01*
X173124060Y-106262257D02*
X173195489Y-106333685D01*
X172052631Y-106190828D02*
X171481203Y-106190828D01*
X171838346Y-105690828D02*
X171838346Y-106976542D01*
X171838346Y-106976542D02*
X171766917Y-107119400D01*
X171766917Y-107119400D02*
X171624060Y-107190828D01*
X171624060Y-107190828D02*
X171481203Y-107190828D01*
X171195488Y-106190828D02*
X170624060Y-106190828D01*
X170981203Y-105690828D02*
X170981203Y-106976542D01*
X170981203Y-106976542D02*
X170909774Y-107119400D01*
X170909774Y-107119400D02*
X170766917Y-107190828D01*
X170766917Y-107190828D02*
X170624060Y-107190828D01*
X170124060Y-106190828D02*
X170124060Y-107690828D01*
X170124060Y-106262257D02*
X169981203Y-106190828D01*
X169981203Y-106190828D02*
X169695488Y-106190828D01*
X169695488Y-106190828D02*
X169552631Y-106262257D01*
X169552631Y-106262257D02*
X169481203Y-106333685D01*
X169481203Y-106333685D02*
X169409774Y-106476542D01*
X169409774Y-106476542D02*
X169409774Y-106905114D01*
X169409774Y-106905114D02*
X169481203Y-107047971D01*
X169481203Y-107047971D02*
X169552631Y-107119400D01*
X169552631Y-107119400D02*
X169695488Y-107190828D01*
X169695488Y-107190828D02*
X169981203Y-107190828D01*
X169981203Y-107190828D02*
X170124060Y-107119400D01*
X168838345Y-107119400D02*
X168695488Y-107190828D01*
X168695488Y-107190828D02*
X168409774Y-107190828D01*
X168409774Y-107190828D02*
X168266917Y-107119400D01*
X168266917Y-107119400D02*
X168195488Y-106976542D01*
X168195488Y-106976542D02*
X168195488Y-106905114D01*
X168195488Y-106905114D02*
X168266917Y-106762257D01*
X168266917Y-106762257D02*
X168409774Y-106690828D01*
X168409774Y-106690828D02*
X168624060Y-106690828D01*
X168624060Y-106690828D02*
X168766917Y-106619400D01*
X168766917Y-106619400D02*
X168838345Y-106476542D01*
X168838345Y-106476542D02*
X168838345Y-106405114D01*
X168838345Y-106405114D02*
X168766917Y-106262257D01*
X168766917Y-106262257D02*
X168624060Y-106190828D01*
X168624060Y-106190828D02*
X168409774Y-106190828D01*
X168409774Y-106190828D02*
X168266917Y-106262257D01*
X167552631Y-107047971D02*
X167481202Y-107119400D01*
X167481202Y-107119400D02*
X167552631Y-107190828D01*
X167552631Y-107190828D02*
X167624059Y-107119400D01*
X167624059Y-107119400D02*
X167552631Y-107047971D01*
X167552631Y-107047971D02*
X167552631Y-107190828D01*
X167552631Y-106262257D02*
X167481202Y-106333685D01*
X167481202Y-106333685D02*
X167552631Y-106405114D01*
X167552631Y-106405114D02*
X167624059Y-106333685D01*
X167624059Y-106333685D02*
X167552631Y-106262257D01*
X167552631Y-106262257D02*
X167552631Y-106405114D01*
X165766916Y-105619400D02*
X167052630Y-107547971D01*
X164195487Y-105619400D02*
X165481201Y-107547971D01*
X163052630Y-106190828D02*
X163052630Y-107405114D01*
X163052630Y-107405114D02*
X163124058Y-107547971D01*
X163124058Y-107547971D02*
X163195487Y-107619400D01*
X163195487Y-107619400D02*
X163338344Y-107690828D01*
X163338344Y-107690828D02*
X163552630Y-107690828D01*
X163552630Y-107690828D02*
X163695487Y-107619400D01*
X163052630Y-107119400D02*
X163195487Y-107190828D01*
X163195487Y-107190828D02*
X163481201Y-107190828D01*
X163481201Y-107190828D02*
X163624058Y-107119400D01*
X163624058Y-107119400D02*
X163695487Y-107047971D01*
X163695487Y-107047971D02*
X163766915Y-106905114D01*
X163766915Y-106905114D02*
X163766915Y-106476542D01*
X163766915Y-106476542D02*
X163695487Y-106333685D01*
X163695487Y-106333685D02*
X163624058Y-106262257D01*
X163624058Y-106262257D02*
X163481201Y-106190828D01*
X163481201Y-106190828D02*
X163195487Y-106190828D01*
X163195487Y-106190828D02*
X163052630Y-106262257D01*
X162338344Y-107190828D02*
X162338344Y-106190828D01*
X162338344Y-105690828D02*
X162409772Y-105762257D01*
X162409772Y-105762257D02*
X162338344Y-105833685D01*
X162338344Y-105833685D02*
X162266915Y-105762257D01*
X162266915Y-105762257D02*
X162338344Y-105690828D01*
X162338344Y-105690828D02*
X162338344Y-105833685D01*
X161838343Y-106190828D02*
X161266915Y-106190828D01*
X161624058Y-105690828D02*
X161624058Y-106976542D01*
X161624058Y-106976542D02*
X161552629Y-107119400D01*
X161552629Y-107119400D02*
X161409772Y-107190828D01*
X161409772Y-107190828D02*
X161266915Y-107190828D01*
X160766915Y-107190828D02*
X160766915Y-105690828D01*
X160124058Y-107190828D02*
X160124058Y-106405114D01*
X160124058Y-106405114D02*
X160195486Y-106262257D01*
X160195486Y-106262257D02*
X160338343Y-106190828D01*
X160338343Y-106190828D02*
X160552629Y-106190828D01*
X160552629Y-106190828D02*
X160695486Y-106262257D01*
X160695486Y-106262257D02*
X160766915Y-106333685D01*
X158766915Y-106190828D02*
X158766915Y-107190828D01*
X159409772Y-106190828D02*
X159409772Y-106976542D01*
X159409772Y-106976542D02*
X159338343Y-107119400D01*
X159338343Y-107119400D02*
X159195486Y-107190828D01*
X159195486Y-107190828D02*
X158981200Y-107190828D01*
X158981200Y-107190828D02*
X158838343Y-107119400D01*
X158838343Y-107119400D02*
X158766915Y-107047971D01*
X158052629Y-107190828D02*
X158052629Y-105690828D01*
X158052629Y-106262257D02*
X157909772Y-106190828D01*
X157909772Y-106190828D02*
X157624057Y-106190828D01*
X157624057Y-106190828D02*
X157481200Y-106262257D01*
X157481200Y-106262257D02*
X157409772Y-106333685D01*
X157409772Y-106333685D02*
X157338343Y-106476542D01*
X157338343Y-106476542D02*
X157338343Y-106905114D01*
X157338343Y-106905114D02*
X157409772Y-107047971D01*
X157409772Y-107047971D02*
X157481200Y-107119400D01*
X157481200Y-107119400D02*
X157624057Y-107190828D01*
X157624057Y-107190828D02*
X157909772Y-107190828D01*
X157909772Y-107190828D02*
X158052629Y-107119400D01*
X156695486Y-107047971D02*
X156624057Y-107119400D01*
X156624057Y-107119400D02*
X156695486Y-107190828D01*
X156695486Y-107190828D02*
X156766914Y-107119400D01*
X156766914Y-107119400D02*
X156695486Y-107047971D01*
X156695486Y-107047971D02*
X156695486Y-107190828D01*
X155338343Y-107119400D02*
X155481200Y-107190828D01*
X155481200Y-107190828D02*
X155766914Y-107190828D01*
X155766914Y-107190828D02*
X155909771Y-107119400D01*
X155909771Y-107119400D02*
X155981200Y-107047971D01*
X155981200Y-107047971D02*
X156052628Y-106905114D01*
X156052628Y-106905114D02*
X156052628Y-106476542D01*
X156052628Y-106476542D02*
X155981200Y-106333685D01*
X155981200Y-106333685D02*
X155909771Y-106262257D01*
X155909771Y-106262257D02*
X155766914Y-106190828D01*
X155766914Y-106190828D02*
X155481200Y-106190828D01*
X155481200Y-106190828D02*
X155338343Y-106262257D01*
X154481200Y-107190828D02*
X154624057Y-107119400D01*
X154624057Y-107119400D02*
X154695486Y-107047971D01*
X154695486Y-107047971D02*
X154766914Y-106905114D01*
X154766914Y-106905114D02*
X154766914Y-106476542D01*
X154766914Y-106476542D02*
X154695486Y-106333685D01*
X154695486Y-106333685D02*
X154624057Y-106262257D01*
X154624057Y-106262257D02*
X154481200Y-106190828D01*
X154481200Y-106190828D02*
X154266914Y-106190828D01*
X154266914Y-106190828D02*
X154124057Y-106262257D01*
X154124057Y-106262257D02*
X154052629Y-106333685D01*
X154052629Y-106333685D02*
X153981200Y-106476542D01*
X153981200Y-106476542D02*
X153981200Y-106905114D01*
X153981200Y-106905114D02*
X154052629Y-107047971D01*
X154052629Y-107047971D02*
X154124057Y-107119400D01*
X154124057Y-107119400D02*
X154266914Y-107190828D01*
X154266914Y-107190828D02*
X154481200Y-107190828D01*
X153338343Y-107190828D02*
X153338343Y-106190828D01*
X153338343Y-106333685D02*
X153266914Y-106262257D01*
X153266914Y-106262257D02*
X153124057Y-106190828D01*
X153124057Y-106190828D02*
X152909771Y-106190828D01*
X152909771Y-106190828D02*
X152766914Y-106262257D01*
X152766914Y-106262257D02*
X152695486Y-106405114D01*
X152695486Y-106405114D02*
X152695486Y-107190828D01*
X152695486Y-106405114D02*
X152624057Y-106262257D01*
X152624057Y-106262257D02*
X152481200Y-106190828D01*
X152481200Y-106190828D02*
X152266914Y-106190828D01*
X152266914Y-106190828D02*
X152124057Y-106262257D01*
X152124057Y-106262257D02*
X152052628Y-106405114D01*
X152052628Y-106405114D02*
X152052628Y-107190828D01*
X150266914Y-105619400D02*
X151552628Y-107547971D01*
X149766914Y-107190828D02*
X149766914Y-105690828D01*
X149124057Y-107190828D02*
X149124057Y-106405114D01*
X149124057Y-106405114D02*
X149195485Y-106262257D01*
X149195485Y-106262257D02*
X149338342Y-106190828D01*
X149338342Y-106190828D02*
X149552628Y-106190828D01*
X149552628Y-106190828D02*
X149695485Y-106262257D01*
X149695485Y-106262257D02*
X149766914Y-106333685D01*
X147766914Y-106190828D02*
X147766914Y-107190828D01*
X148409771Y-106190828D02*
X148409771Y-106976542D01*
X148409771Y-106976542D02*
X148338342Y-107119400D01*
X148338342Y-107119400D02*
X148195485Y-107190828D01*
X148195485Y-107190828D02*
X147981199Y-107190828D01*
X147981199Y-107190828D02*
X147838342Y-107119400D01*
X147838342Y-107119400D02*
X147766914Y-107047971D01*
X147124056Y-107119400D02*
X146981199Y-107190828D01*
X146981199Y-107190828D02*
X146695485Y-107190828D01*
X146695485Y-107190828D02*
X146552628Y-107119400D01*
X146552628Y-107119400D02*
X146481199Y-106976542D01*
X146481199Y-106976542D02*
X146481199Y-106905114D01*
X146481199Y-106905114D02*
X146552628Y-106762257D01*
X146552628Y-106762257D02*
X146695485Y-106690828D01*
X146695485Y-106690828D02*
X146909771Y-106690828D01*
X146909771Y-106690828D02*
X147052628Y-106619400D01*
X147052628Y-106619400D02*
X147124056Y-106476542D01*
X147124056Y-106476542D02*
X147124056Y-106405114D01*
X147124056Y-106405114D02*
X147052628Y-106262257D01*
X147052628Y-106262257D02*
X146909771Y-106190828D01*
X146909771Y-106190828D02*
X146695485Y-106190828D01*
X146695485Y-106190828D02*
X146552628Y-106262257D01*
X146052627Y-106190828D02*
X145481199Y-106190828D01*
X145838342Y-105690828D02*
X145838342Y-106976542D01*
X145838342Y-106976542D02*
X145766913Y-107119400D01*
X145766913Y-107119400D02*
X145624056Y-107190828D01*
X145624056Y-107190828D02*
X145481199Y-107190828D01*
X144338342Y-107190828D02*
X144338342Y-106405114D01*
X144338342Y-106405114D02*
X144409770Y-106262257D01*
X144409770Y-106262257D02*
X144552627Y-106190828D01*
X144552627Y-106190828D02*
X144838342Y-106190828D01*
X144838342Y-106190828D02*
X144981199Y-106262257D01*
X144338342Y-107119400D02*
X144481199Y-107190828D01*
X144481199Y-107190828D02*
X144838342Y-107190828D01*
X144838342Y-107190828D02*
X144981199Y-107119400D01*
X144981199Y-107119400D02*
X145052627Y-106976542D01*
X145052627Y-106976542D02*
X145052627Y-106833685D01*
X145052627Y-106833685D02*
X144981199Y-106690828D01*
X144981199Y-106690828D02*
X144838342Y-106619400D01*
X144838342Y-106619400D02*
X144481199Y-106619400D01*
X144481199Y-106619400D02*
X144338342Y-106547971D01*
X143766913Y-106190828D02*
X143409770Y-107190828D01*
X143409770Y-107190828D02*
X143052627Y-106190828D01*
X141409770Y-105619400D02*
X142695484Y-107547971D01*
X140266913Y-107190828D02*
X140266913Y-106405114D01*
X140266913Y-106405114D02*
X140338341Y-106262257D01*
X140338341Y-106262257D02*
X140481198Y-106190828D01*
X140481198Y-106190828D02*
X140766913Y-106190828D01*
X140766913Y-106190828D02*
X140909770Y-106262257D01*
X140266913Y-107119400D02*
X140409770Y-107190828D01*
X140409770Y-107190828D02*
X140766913Y-107190828D01*
X140766913Y-107190828D02*
X140909770Y-107119400D01*
X140909770Y-107119400D02*
X140981198Y-106976542D01*
X140981198Y-106976542D02*
X140981198Y-106833685D01*
X140981198Y-106833685D02*
X140909770Y-106690828D01*
X140909770Y-106690828D02*
X140766913Y-106619400D01*
X140766913Y-106619400D02*
X140409770Y-106619400D01*
X140409770Y-106619400D02*
X140266913Y-106547971D01*
X139552627Y-107190828D02*
X139552627Y-106190828D01*
X139552627Y-106333685D02*
X139481198Y-106262257D01*
X139481198Y-106262257D02*
X139338341Y-106190828D01*
X139338341Y-106190828D02*
X139124055Y-106190828D01*
X139124055Y-106190828D02*
X138981198Y-106262257D01*
X138981198Y-106262257D02*
X138909770Y-106405114D01*
X138909770Y-106405114D02*
X138909770Y-107190828D01*
X138909770Y-106405114D02*
X138838341Y-106262257D01*
X138838341Y-106262257D02*
X138695484Y-106190828D01*
X138695484Y-106190828D02*
X138481198Y-106190828D01*
X138481198Y-106190828D02*
X138338341Y-106262257D01*
X138338341Y-106262257D02*
X138266912Y-106405114D01*
X138266912Y-106405114D02*
X138266912Y-107190828D01*
X137624055Y-107119400D02*
X137481198Y-107190828D01*
X137481198Y-107190828D02*
X137195484Y-107190828D01*
X137195484Y-107190828D02*
X137052627Y-107119400D01*
X137052627Y-107119400D02*
X136981198Y-106976542D01*
X136981198Y-106976542D02*
X136981198Y-106905114D01*
X136981198Y-106905114D02*
X137052627Y-106762257D01*
X137052627Y-106762257D02*
X137195484Y-106690828D01*
X137195484Y-106690828D02*
X137409770Y-106690828D01*
X137409770Y-106690828D02*
X137552627Y-106619400D01*
X137552627Y-106619400D02*
X137624055Y-106476542D01*
X137624055Y-106476542D02*
X137624055Y-106405114D01*
X137624055Y-106405114D02*
X137552627Y-106262257D01*
X137552627Y-106262257D02*
X137409770Y-106190828D01*
X137409770Y-106190828D02*
X137195484Y-106190828D01*
X137195484Y-106190828D02*
X137052627Y-106262257D01*
X136552626Y-106190828D02*
X135981198Y-106190828D01*
X136338341Y-105690828D02*
X136338341Y-106976542D01*
X136338341Y-106976542D02*
X136266912Y-107119400D01*
X136266912Y-107119400D02*
X136124055Y-107190828D01*
X136124055Y-107190828D02*
X135981198Y-107190828D01*
X135481198Y-107190828D02*
X135481198Y-106190828D01*
X135481198Y-106476542D02*
X135409769Y-106333685D01*
X135409769Y-106333685D02*
X135338341Y-106262257D01*
X135338341Y-106262257D02*
X135195483Y-106190828D01*
X135195483Y-106190828D02*
X135052626Y-106190828D01*
X133909770Y-107190828D02*
X133909770Y-106405114D01*
X133909770Y-106405114D02*
X133981198Y-106262257D01*
X133981198Y-106262257D02*
X134124055Y-106190828D01*
X134124055Y-106190828D02*
X134409770Y-106190828D01*
X134409770Y-106190828D02*
X134552627Y-106262257D01*
X133909770Y-107119400D02*
X134052627Y-107190828D01*
X134052627Y-107190828D02*
X134409770Y-107190828D01*
X134409770Y-107190828D02*
X134552627Y-107119400D01*
X134552627Y-107119400D02*
X134624055Y-106976542D01*
X134624055Y-106976542D02*
X134624055Y-106833685D01*
X134624055Y-106833685D02*
X134552627Y-106690828D01*
X134552627Y-106690828D02*
X134409770Y-106619400D01*
X134409770Y-106619400D02*
X134052627Y-106619400D01*
X134052627Y-106619400D02*
X133909770Y-106547971D01*
X132552627Y-107190828D02*
X132552627Y-105690828D01*
X132552627Y-107119400D02*
X132695484Y-107190828D01*
X132695484Y-107190828D02*
X132981198Y-107190828D01*
X132981198Y-107190828D02*
X133124055Y-107119400D01*
X133124055Y-107119400D02*
X133195484Y-107047971D01*
X133195484Y-107047971D02*
X133266912Y-106905114D01*
X133266912Y-106905114D02*
X133266912Y-106476542D01*
X133266912Y-106476542D02*
X133195484Y-106333685D01*
X133195484Y-106333685D02*
X133124055Y-106262257D01*
X133124055Y-106262257D02*
X132981198Y-106190828D01*
X132981198Y-106190828D02*
X132695484Y-106190828D01*
X132695484Y-106190828D02*
X132552627Y-106262257D01*
X132195484Y-107333685D02*
X131052626Y-107333685D01*
X130695484Y-107190828D02*
X130695484Y-106190828D01*
X130695484Y-105690828D02*
X130766912Y-105762257D01*
X130766912Y-105762257D02*
X130695484Y-105833685D01*
X130695484Y-105833685D02*
X130624055Y-105762257D01*
X130624055Y-105762257D02*
X130695484Y-105690828D01*
X130695484Y-105690828D02*
X130695484Y-105833685D01*
X130052626Y-107119400D02*
X129909769Y-107190828D01*
X129909769Y-107190828D02*
X129624055Y-107190828D01*
X129624055Y-107190828D02*
X129481198Y-107119400D01*
X129481198Y-107119400D02*
X129409769Y-106976542D01*
X129409769Y-106976542D02*
X129409769Y-106905114D01*
X129409769Y-106905114D02*
X129481198Y-106762257D01*
X129481198Y-106762257D02*
X129624055Y-106690828D01*
X129624055Y-106690828D02*
X129838341Y-106690828D01*
X129838341Y-106690828D02*
X129981198Y-106619400D01*
X129981198Y-106619400D02*
X130052626Y-106476542D01*
X130052626Y-106476542D02*
X130052626Y-106405114D01*
X130052626Y-106405114D02*
X129981198Y-106262257D01*
X129981198Y-106262257D02*
X129838341Y-106190828D01*
X129838341Y-106190828D02*
X129624055Y-106190828D01*
X129624055Y-106190828D02*
X129481198Y-106262257D01*
X128124055Y-107190828D02*
X128124055Y-106405114D01*
X128124055Y-106405114D02*
X128195483Y-106262257D01*
X128195483Y-106262257D02*
X128338340Y-106190828D01*
X128338340Y-106190828D02*
X128624055Y-106190828D01*
X128624055Y-106190828D02*
X128766912Y-106262257D01*
X128124055Y-107119400D02*
X128266912Y-107190828D01*
X128266912Y-107190828D02*
X128624055Y-107190828D01*
X128624055Y-107190828D02*
X128766912Y-107119400D01*
X128766912Y-107119400D02*
X128838340Y-106976542D01*
X128838340Y-106976542D02*
X128838340Y-106833685D01*
X128838340Y-106833685D02*
X128766912Y-106690828D01*
X128766912Y-106690828D02*
X128624055Y-106619400D01*
X128624055Y-106619400D02*
X128266912Y-106619400D01*
X128266912Y-106619400D02*
X128124055Y-106547971D01*
M02*
